<?xml version="1.0" encoding="UTF-8" standalone="no"?>
<!DOCTYPE svg PUBLIC "-//W3C//DTD SVG 1.1//EN" "http://www.w3.org/Graphics/SVG/1.1/DTD/svg11.dtd">
<svg width="100%" height="100%" viewBox="0 0 766 443" version="1.1" xmlns="http://www.w3.org/2000/svg" xmlns:xlink="http://www.w3.org/1999/xlink" xml:space="preserve" xmlns:serif="http://www.serif.com/" style="fill-rule:evenodd;clip-rule:evenodd;stroke-linejoin:round;stroke-miterlimit:2;">
    <g transform="matrix(1,0,0,1,-29.4042,-147.308)">
        <g id="kampong-delta" serif:id="kampong delta">
            <g transform="matrix(0.728155,0,0,1,40.2197,0)">
                <rect x="119.711" y="147.708" width="87.857" height="69.091" style="fill:rgb(231,239,255);"/>
                <path d="M208.117,147.708C208.117,147.487 207.871,147.308 207.568,147.308L119.711,147.308C119.408,147.308 119.162,147.487 119.162,147.708L119.162,216.799C119.162,217.02 119.408,217.199 119.711,217.199L207.568,217.199C207.871,217.199 208.117,217.02 208.117,216.799L208.117,147.708ZM207.019,148.108L207.019,216.399C207.019,216.399 120.261,216.399 120.261,216.399C120.261,216.399 120.261,148.108 120.261,148.108L207.019,148.108Z"/>
            </g>
            <g transform="matrix(0.757281,0,0,3.27161,37.586,-273.267)">
                <rect x="119.711" y="147.708" width="87.857" height="69.091" style="fill:rgb(231,239,255);"/>
                <path d="M208.096,147.708C208.096,147.641 207.86,147.586 207.568,147.586L119.711,147.586C119.42,147.586 119.183,147.641 119.183,147.708L119.183,216.799C119.183,216.867 119.42,216.921 119.711,216.921L207.568,216.921C207.86,216.921 208.096,216.867 208.096,216.799L208.096,147.708ZM207.04,147.83L207.04,216.677C207.04,216.677 120.24,216.677 120.24,216.677C120.24,216.677 120.24,147.83 120.24,147.83L207.04,147.83Z"/>
            </g>
            <g transform="matrix(6.91495,0,0,1.49383,-704.198,109.424)">
                <rect x="119.711" y="147.708" width="87.857" height="69.091" style="fill:rgb(219,233,248);fill-opacity:0.62;"/>
                <path d="M207.626,147.708C207.626,147.56 207.6,147.44 207.568,147.44L119.711,147.44C119.679,147.44 119.654,147.56 119.654,147.708L119.654,216.799C119.654,216.947 119.679,217.067 119.711,217.067L207.568,217.067C207.6,217.067 207.626,216.947 207.626,216.799L207.626,147.708ZM207.51,147.976L207.51,216.531C207.51,216.531 119.769,216.531 119.769,216.531C119.769,216.531 119.769,147.976 119.769,147.976C119.769,147.976 207.51,147.976 207.51,147.976L207.51,147.976Z"/>
            </g>
            <g transform="matrix(3.99019,0,0,0.382717,-142.959,224.498)">
                <rect x="119.711" y="147.708" width="87.857" height="69.091" style="fill:rgb(212,212,212);"/>
                <path d="M207.668,147.708C207.668,147.131 207.623,146.663 207.568,146.663L119.711,146.663C119.656,146.663 119.611,147.131 119.611,147.708L119.611,216.799C119.611,217.376 119.656,217.844 119.711,217.844L207.568,217.844C207.623,217.844 207.668,217.376 207.668,216.799L207.668,147.708ZM207.468,148.753L207.468,215.754C207.468,215.754 119.812,215.754 119.812,215.754C119.812,215.754 119.812,148.753 119.812,148.753C123.125,148.753 207.468,148.753 207.468,148.753L207.468,148.753Z"/>
            </g>
            <g transform="matrix(1.71942,0,0,1.4784,-162.08,266.305)">
                <path d="M204.52,145.345L188.255,147.748L188.508,161.77L147.382,161.033L145.872,148.257L126.533,148.429L128.601,217.981L200.456,216.208L204.52,145.345Z" style="fill:rgb(219,233,248);fill-opacity:0.62;"/>
                <path d="M204.752,145.363C204.757,145.282 204.73,145.203 204.68,145.148C204.629,145.093 204.56,145.066 204.491,145.076L188.226,147.48C188.108,147.497 188.02,147.616 188.022,147.754L188.27,161.495C188.27,161.495 147.585,160.766 147.585,160.766C147.585,160.766 146.102,148.22 146.102,148.22C146.086,148.086 145.987,147.986 145.87,147.987L126.531,148.159C126.468,148.159 126.408,148.189 126.365,148.242C126.321,148.295 126.298,148.366 126.3,148.439L128.369,217.99C128.373,218.138 128.479,218.254 128.606,218.251L200.461,216.479C200.582,216.476 200.68,216.366 200.688,216.226L204.752,145.363ZM204.269,145.655L200.238,215.943C200.238,215.943 128.826,217.705 128.826,217.705C128.826,217.705 126.773,148.698 126.773,148.698C126.773,148.698 145.669,148.53 145.669,148.53C145.669,148.53 147.151,161.07 147.151,161.07C147.167,161.203 147.263,161.302 147.378,161.304L188.504,162.04C188.567,162.041 188.628,162.013 188.673,161.96C188.717,161.908 188.742,161.837 188.74,161.764L188.492,147.986L204.269,145.655Z"/>
            </g>
            <g transform="matrix(1.71942,0,0,1.4784,72.4407,264.558)">
                <path d="M194.051,146.177L174.285,147.748L175.29,161.815L144.842,161.92L145.872,148.257L126.533,148.429L128.601,217.981L190.749,216.448L194.051,146.177Z" style="fill:rgb(219,233,248);fill-opacity:0.62;"/>
                <path d="M194.283,146.192C194.287,146.114 194.262,146.039 194.214,145.985C194.167,145.93 194.102,145.902 194.035,145.907L174.269,147.478C174.207,147.483 174.149,147.517 174.109,147.572C174.068,147.627 174.048,147.699 174.053,147.771L175.038,161.545C175.038,161.545 145.096,161.648 145.096,161.648C145.096,161.648 146.104,148.281 146.104,148.281C146.109,148.205 146.087,148.13 146.043,148.074C145.998,148.018 145.936,147.986 145.87,147.987L126.531,148.159C126.468,148.159 126.408,148.189 126.365,148.242C126.321,148.295 126.298,148.366 126.3,148.439L128.369,217.99C128.373,218.138 128.479,218.254 128.606,218.251L190.754,216.718C190.876,216.715 190.975,216.604 190.982,216.463L194.283,146.192ZM193.804,146.468L190.529,216.183C190.529,216.183 128.826,217.705 128.826,217.705C128.826,217.705 126.773,148.698 126.773,148.698C126.773,148.698 145.618,148.53 145.618,148.53C145.618,148.53 144.61,161.896 144.61,161.896C144.604,161.972 144.626,162.047 144.67,162.103C144.714,162.159 144.777,162.19 144.842,162.19L175.291,162.086C175.356,162.085 175.418,162.054 175.462,161.998C175.506,161.942 175.527,161.868 175.522,161.793L174.537,148L193.804,146.468Z"/>
            </g>
            <g transform="matrix(1.71942,0,0,1.4784,255.865,264.122)">
                <path d="M194.051,146.177L174.285,147.748L175.29,161.815L144.842,161.92L145.872,148.257L126.533,148.429L128.601,217.981L190.749,216.448L194.051,146.177Z" style="fill:rgb(219,233,248);fill-opacity:0.62;"/>
                <path d="M194.283,146.192C194.287,146.114 194.262,146.039 194.214,145.985C194.167,145.93 194.102,145.902 194.035,145.907L174.269,147.478C174.207,147.483 174.149,147.517 174.109,147.572C174.068,147.627 174.048,147.699 174.053,147.771L175.038,161.545C175.038,161.545 145.096,161.648 145.096,161.648C145.096,161.648 146.104,148.281 146.104,148.281C146.109,148.205 146.087,148.13 146.043,148.074C145.998,148.018 145.936,147.986 145.87,147.987L126.531,148.159C126.468,148.159 126.408,148.189 126.365,148.242C126.321,148.295 126.298,148.366 126.3,148.439L128.369,217.99C128.373,218.138 128.479,218.254 128.606,218.251L190.754,216.718C190.876,216.715 190.975,216.604 190.982,216.463L194.283,146.192ZM193.804,146.468L190.529,216.183C190.529,216.183 128.826,217.705 128.826,217.705C128.826,217.705 126.773,148.698 126.773,148.698C126.773,148.698 145.618,148.53 145.618,148.53C145.618,148.53 144.61,161.896 144.61,161.896C144.604,161.972 144.626,162.047 144.67,162.103C144.714,162.159 144.777,162.19 144.842,162.19L175.291,162.086C175.356,162.085 175.418,162.054 175.462,161.998C175.506,161.942 175.527,161.868 175.522,161.793L174.537,148L193.804,146.468Z"/>
            </g>
            <g transform="matrix(1.71942,0,0,1.4784,346.266,266.742)">
                <path d="M194.051,146.177L174.285,147.748L175.29,161.815L144.842,161.92L145.872,148.257L126.533,148.429L128.601,217.981L190.749,216.448L194.051,146.177Z" style="fill:rgb(219,233,248);fill-opacity:0.62;"/>
                <path d="M194.283,146.192C194.287,146.114 194.262,146.039 194.214,145.985C194.167,145.93 194.102,145.902 194.035,145.907L174.269,147.478C174.207,147.483 174.149,147.517 174.109,147.572C174.068,147.627 174.048,147.699 174.053,147.771L175.038,161.545C175.038,161.545 145.096,161.648 145.096,161.648C145.096,161.648 146.104,148.281 146.104,148.281C146.109,148.205 146.087,148.13 146.043,148.074C145.998,148.018 145.936,147.986 145.87,147.987L126.531,148.159C126.468,148.159 126.408,148.189 126.365,148.242C126.321,148.295 126.298,148.366 126.3,148.439L128.369,217.99C128.373,218.138 128.479,218.254 128.606,218.251L190.754,216.718C190.876,216.715 190.975,216.604 190.982,216.463L194.283,146.192ZM193.804,146.468L190.529,216.183C190.529,216.183 128.826,217.705 128.826,217.705C128.826,217.705 126.773,148.698 126.773,148.698C126.773,148.698 145.618,148.53 145.618,148.53C145.618,148.53 144.61,161.896 144.61,161.896C144.604,161.972 144.626,162.047 144.67,162.103C144.714,162.159 144.777,162.19 144.842,162.19L175.291,162.086C175.356,162.085 175.418,162.054 175.462,161.998C175.506,161.942 175.527,161.868 175.522,161.793L174.537,148L193.804,146.468Z"/>
            </g>
            <g transform="matrix(1.71942,0,0,1.4784,432.738,261.938)">
                <path d="M168.398,216.743L168.686,165.36L144.842,161.92L145.872,148.257L126.533,148.429L128.601,217.981L168.398,216.743Z" style="fill:rgb(219,233,248);fill-opacity:0.62;"/>
                <path d="M168.404,217.014C168.529,217.01 168.63,216.891 168.63,216.745L168.919,165.362C168.92,165.224 168.832,165.108 168.715,165.091L145.093,161.683C145.093,161.683 146.104,148.281 146.104,148.281C146.109,148.205 146.087,148.13 146.043,148.074C145.998,148.018 145.936,147.986 145.87,147.987L126.531,148.159C126.468,148.159 126.408,148.189 126.365,148.242C126.321,148.295 126.298,148.366 126.3,148.439L128.369,217.99C128.373,218.139 128.48,218.255 128.607,218.251L168.404,217.014ZM168.167,216.48L128.826,217.703C128.826,217.703 126.773,148.698 126.773,148.698C126.773,148.698 145.618,148.53 145.618,148.53C145.618,148.53 144.61,161.896 144.61,161.896C144.599,162.041 144.689,162.17 144.813,162.188L168.452,165.599L168.167,216.48Z"/>
            </g>
            <g transform="matrix(1.71942,0,0,1.4784,165.9,264.558)">
                <path d="M194.051,146.177L174.285,147.748L175.29,161.815L144.842,161.92L145.872,148.257L126.533,148.429L128.601,217.981L190.749,216.448L194.051,146.177Z" style="fill:rgb(219,233,248);fill-opacity:0.62;"/>
                <path d="M194.283,146.192C194.287,146.114 194.262,146.039 194.214,145.985C194.167,145.93 194.102,145.902 194.035,145.907L174.269,147.478C174.207,147.483 174.149,147.517 174.109,147.572C174.068,147.627 174.048,147.699 174.053,147.771L175.038,161.545C175.038,161.545 145.096,161.648 145.096,161.648C145.096,161.648 146.104,148.281 146.104,148.281C146.109,148.205 146.087,148.13 146.043,148.074C145.998,148.018 145.936,147.986 145.87,147.987L126.531,148.159C126.468,148.159 126.408,148.189 126.365,148.242C126.321,148.295 126.298,148.366 126.3,148.439L128.369,217.99C128.373,218.138 128.479,218.254 128.606,218.251L190.754,216.718C190.876,216.715 190.975,216.604 190.982,216.463L194.283,146.192ZM193.804,146.468L190.529,216.183C190.529,216.183 128.826,217.705 128.826,217.705C128.826,217.705 126.773,148.698 126.773,148.698C126.773,148.698 145.618,148.53 145.618,148.53C145.618,148.53 144.61,161.896 144.61,161.896C144.604,161.972 144.626,162.047 144.67,162.103C144.714,162.159 144.777,162.19 144.842,162.19L175.291,162.086C175.356,162.085 175.418,162.054 175.462,161.998C175.506,161.942 175.527,161.868 175.522,161.793L174.537,148L193.804,146.468Z"/>
            </g>
            <g transform="matrix(1.12267,0,0,1.30769,-91.7664,12.8321)">
                <path d="M238.187,202.542L302.16,246.896L174.214,246.896L238.187,202.542Z" style="fill:rgb(220,157,110);fill-opacity:0.74;"/>
                <path d="M238.411,202.304C238.28,202.213 238.094,202.213 237.963,202.304L173.99,246.658C173.872,246.74 173.828,246.876 173.878,246.998C173.928,247.121 174.063,247.202 174.214,247.202L302.16,247.202C302.311,247.202 302.446,247.121 302.496,246.998C302.547,246.876 302.502,246.74 302.384,246.658L238.411,202.304ZM238.187,202.935L301.152,246.591C301.152,246.591 175.222,246.591 175.222,246.591L238.187,202.935Z"/>
            </g>
            <rect x="345.064" y="263.375" width="345.285" height="23.883" style="fill:rgb(220,157,110);fill-opacity:0.74;"/>
            <path d="M690.749,263.375C690.749,263.154 690.57,262.975 690.349,262.975L345.064,262.975C344.843,262.975 344.664,263.154 344.664,263.375L344.664,287.258C344.664,287.479 344.843,287.658 345.064,287.658L690.349,287.658C690.57,287.658 690.749,287.479 690.749,287.258L690.749,263.375ZM689.949,263.775L689.949,286.858C689.949,286.858 345.464,286.858 345.464,286.858C345.464,286.858 345.464,263.775 345.464,263.775L689.949,263.775Z"/>
            <g transform="matrix(2.19471,0,0,1.88571,-727.513,-79.7389)">
                <path d="M665.475,264.098L379.887,262.651L345.064,287.258L690.349,287.258L665.475,264.098Z" style="fill:rgb(229,160,110);fill-opacity:0.74;"/>
                <path d="M665.589,263.933C665.557,263.903 665.517,263.887 665.476,263.886L379.888,262.439C379.854,262.439 379.821,262.449 379.793,262.47L344.97,287.077C344.9,287.126 344.867,287.224 344.889,287.315C344.911,287.407 344.982,287.47 345.064,287.47L690.349,287.47C690.426,287.47 690.495,287.413 690.521,287.328C690.547,287.243 690.523,287.149 690.463,287.092L665.589,263.933ZM665.411,264.31L689.829,287.046C689.829,287.046 345.716,287.046 345.716,287.046C345.716,287.046 379.938,262.863 379.938,262.863C379.938,262.863 665.411,264.31 665.411,264.31L665.411,264.31Z"/>
            </g>
            <g transform="matrix(1.90618,0,0,1.41429,-439.612,-66.4634)">
                <path d="M610.939,261.271L379.887,262.651L345.064,287.258L625.324,291.97L610.939,261.271Z" style="fill:rgb(229,160,110);fill-opacity:0.74;"/>
                <path d="M611.116,261.12C611.077,261.038 611.01,260.988 610.938,260.989L379.886,262.368C379.853,262.368 379.82,262.379 379.79,262.4L344.967,287.008C344.882,287.068 344.838,287.198 344.86,287.324C344.882,287.45 344.965,287.539 345.062,287.541L625.322,292.253C625.399,292.254 625.47,292.198 625.508,292.108C625.545,292.017 625.543,291.907 625.502,291.819L611.116,261.12ZM610.823,261.555L624.941,291.681C613.73,291.492 362.21,287.263 345.897,286.989C345.897,286.989 379.939,262.933 379.939,262.933L610.823,261.555Z"/>
            </g>
            <g transform="matrix(1,0,0,1,0.682397,5.45904)">
                <g transform="matrix(0.901493,0,0,0.829587,22.0084,119.629)">
                    <path d="M776.096,253.043C776.096,252.777 775.897,252.561 775.652,252.561L183.478,252.561C183.233,252.561 183.035,252.777 183.035,253.043L183.035,358.261C183.035,358.527 183.233,358.743 183.478,358.743L775.652,358.743C775.897,358.743 776.096,358.527 776.096,358.261L776.096,253.043ZM775.208,253.526L775.208,357.779C775.208,357.779 183.922,357.779 183.922,357.779C183.922,357.779 183.922,253.526 183.922,253.526C183.922,253.526 775.208,253.526 775.208,253.526L775.208,253.526Z" style="fill:rgb(26,26,26);"/>
                </g>
                <g transform="matrix(1,0,0,1,-62.2077,81.294)">
                    <path d="M238.187,202.542L302.16,246.896L174.214,246.896L238.187,202.542Z" style="fill:rgb(220,157,110);fill-opacity:0.74;"/>
                    <path d="M238.415,202.213C238.278,202.118 238.096,202.118 237.959,202.213L173.986,246.568C173.842,246.667 173.78,246.849 173.832,247.016C173.884,247.183 174.039,247.296 174.214,247.296L302.16,247.296C302.335,247.296 302.49,247.183 302.542,247.016C302.594,246.849 302.532,246.667 302.388,246.568L238.415,202.213ZM238.187,203.028L300.881,246.496C300.881,246.496 175.493,246.496 175.493,246.496L238.187,203.028Z" style="fill:rgb(26,26,26);"/>
                </g>
                <g transform="matrix(1.10947,0,0,1.17925,-139.508,152.342)">
                    <path d="M776.013,253.043C776.013,252.856 775.851,252.704 775.652,252.704L183.478,252.704C183.279,252.704 183.118,252.856 183.118,253.043L183.118,358.261C183.118,358.448 183.279,358.6 183.478,358.6L775.652,358.6C775.851,358.6 776.013,358.448 776.013,358.261L776.013,253.043ZM775.292,253.383L775.292,357.922C759.06,357.922 200.071,357.922 183.839,357.922C183.839,357.922 183.839,253.383 183.839,253.383C183.839,253.383 775.292,253.383 775.292,253.383L775.292,253.383Z" style="fill:rgb(26,26,26);"/>
                </g>
                <g transform="matrix(0.829587,0,0,0.829587,32.4242,115.187)">
                    <path d="M188.308,49.234C188.308,48.967 188.092,48.752 187.826,48.752L122.609,48.752C122.342,48.752 122.127,48.967 122.127,49.234L122.127,111.842C122.127,112.109 122.342,112.325 122.609,112.325L187.826,112.325C188.092,112.325 188.308,112.109 188.308,111.842L188.308,49.234ZM187.344,49.716L187.344,111.36C187.344,111.36 123.091,111.36 123.091,111.36C123.091,111.36 123.091,49.716 123.091,49.716L187.344,49.716Z" style="fill:rgb(26,26,26);"/>
                </g>
                <g transform="matrix(0.829587,0,0,0.829587,32.4242,118.187)">
                    <rect x="123.478" y="113.913" width="63.478" height="258.261" style="fill:rgb(231,239,255);"/>
                    <path d="M187.235,113.913C187.235,113.67 187.11,113.473 186.957,113.473C186.957,113.473 123.478,113.482 123.478,113.482C123.24,113.482 123.048,113.675 123.048,113.913L123.087,372.174C123.087,372.39 123.262,372.565 123.478,372.565L186.957,372.555C187.167,372.555 187.337,372.384 187.337,372.174C187.337,372.174 187.311,205.147 187.296,139.739C187.295,135.934 187.299,132.473 187.293,129.409C187.273,119.648 187.235,113.913 187.235,113.913ZM186.675,114.353C186.666,115.868 186.637,121.222 186.62,129.409C186.614,132.473 186.618,135.934 186.617,139.739C186.603,203.33 186.577,362.973 186.576,371.793C186.576,371.793 123.87,371.783 123.87,371.783C123.87,371.783 123.909,114.344 123.909,114.344L186.675,114.353Z" style="fill:rgb(26,26,26);"/>
                </g>
                <g transform="matrix(0.829587,0,0,0.829587,32.4242,118.187)">
                    <path d="M122.393,358.224L100.654,358.224C100.589,358.224 100.525,358.237 100.465,358.263L0.465,400.871C0.254,400.961 0.136,401.187 0.182,401.411C0.227,401.636 0.425,401.797 0.654,401.797L917.363,401.797C917.589,401.797 917.785,401.639 917.834,401.418C917.882,401.197 917.77,400.972 917.564,400.877L833,361.943C832.758,361.832 832.472,361.937 832.36,362.179C832.249,362.421 832.355,362.707 832.597,362.819L915.162,400.833C867.257,400.833 52.613,400.833 3.016,400.833C3.016,400.833 100.752,359.188 100.752,359.188C100.752,359.188 122.393,359.188 122.393,359.188C122.659,359.188 122.875,358.972 122.875,358.706C122.875,358.44 122.659,358.224 122.393,358.224Z" style="fill:rgb(26,26,26);"/>
                </g>
                <g transform="matrix(0.829587,0,0,0.829587,10.4242,118.187)">
                    <path d="M284.53,252.376L319.689,225.419L777.08,225.419" style="fill-opacity:0;"/>
                    <path d="M284.823,252.758L319.852,225.901C319.852,225.901 777.08,225.901 777.08,225.901C777.346,225.901 777.562,225.685 777.562,225.419C777.562,225.153 777.346,224.937 777.08,224.937L319.689,224.937C319.583,224.937 319.479,224.972 319.395,225.037L284.236,251.993C284.025,252.155 283.985,252.458 284.147,252.669C284.309,252.88 284.612,252.92 284.823,252.758Z" style="fill:rgb(26,26,26);"/>
                </g>
                <g transform="matrix(-0.829587,0,0,0.829587,977.242,118.187)">
                    <path d="M306.651,255.745L280.299,255.745L319.689,225.419L777.08,225.419" style="fill-opacity:0;"/>
                    <path d="M306.651,256.227L280.299,256.227C280.092,256.227 279.909,256.096 279.842,255.9C279.776,255.705 279.841,255.489 280.004,255.363L319.395,225.037C319.479,224.972 319.582,224.937 319.689,224.937L777.08,224.937C777.346,224.937 777.562,225.153 777.562,225.419C777.562,225.685 777.346,225.901 777.08,225.901L319.853,225.901C319.853,225.901 281.715,255.263 281.715,255.263C281.715,255.263 306.651,255.263 306.651,255.263C306.917,255.263 307.133,255.479 307.133,255.745C307.133,256.011 306.917,256.227 306.651,256.227Z" style="fill:rgb(26,26,26);"/>
                </g>
                <g transform="matrix(1,0,0,1,-17,83)">
                    <path d="M80.514,397.548L101.951,397.548C101.951,397.548 101.951,421.032 101.951,421.032C101.951,421.252 102.13,421.432 102.351,421.432L187.648,421.432C187.869,421.432 188.048,421.252 188.048,421.032L188.048,398.231C188.048,398.231 200.896,398.231 200.896,398.231C200.896,398.231 200.896,490.634 200.896,490.634C200.896,490.855 201.075,491.034 201.296,491.034C201.517,491.034 201.696,490.855 201.696,490.634L201.696,397.831C201.696,397.61 201.517,397.431 201.296,397.431L187.648,397.431C187.427,397.431 187.248,397.61 187.248,397.831L187.248,420.632C187.248,420.632 102.751,420.632 102.751,420.632C102.751,420.632 102.751,397.148 102.751,397.148C102.751,396.927 102.571,396.748 102.351,396.748L80.514,396.748C80.294,396.748 80.114,396.927 80.114,397.148C80.114,397.369 80.294,397.548 80.514,397.548Z" style="fill:rgb(26,26,26);"/>
                </g>
                <rect x="85.504" y="503.642" width="85.298" height="32.413" style="fill-opacity:0;"/>
                <path d="M171.202,503.642C171.202,503.421 171.023,503.242 170.802,503.242L85.504,503.242C85.283,503.242 85.104,503.421 85.104,503.642L85.104,536.055C85.104,536.276 85.283,536.455 85.504,536.455L170.802,536.455C171.023,536.455 171.202,536.276 171.202,536.055L171.202,503.642ZM170.402,504.042L170.402,535.655C170.402,535.655 85.904,535.655 85.904,535.655C85.904,535.655 85.904,504.042 85.904,504.042L170.402,504.042Z" style="fill:rgb(26,26,26);"/>
                <g transform="matrix(0.776,0,0,1,247.887,-0.545896)">
                    <rect x="85.504" y="503.642" width="85.298" height="32.413" style="fill-opacity:0;"/>
                    <path d="M171.317,503.642C171.317,503.421 171.087,503.242 170.802,503.242L85.504,503.242C85.22,503.242 84.989,503.421 84.989,503.642L84.989,536.055C84.989,536.276 85.22,536.455 85.504,536.455L170.802,536.455C171.087,536.455 171.317,536.276 171.317,536.055L171.317,503.642ZM170.286,504.042L170.286,535.655C170.286,535.655 86.02,535.655 86.02,535.655C86.02,535.655 86.02,504.042 86.02,504.042L170.286,504.042Z" style="fill:rgb(26,26,26);"/>
                </g>
                <g transform="matrix(0.776,0,0,1,336.87,-0.545896)">
                    <rect x="85.504" y="503.642" width="85.298" height="32.413" style="fill-opacity:0;"/>
                    <path d="M171.317,503.642C171.317,503.421 171.087,503.242 170.802,503.242L85.504,503.242C85.22,503.242 84.989,503.421 84.989,503.642L84.989,536.055C84.989,536.276 85.22,536.455 85.504,536.455L170.802,536.455C171.087,536.455 171.317,536.276 171.317,536.055L171.317,503.642ZM170.286,504.042L170.286,535.655C170.286,535.655 86.02,535.655 86.02,535.655C86.02,535.655 86.02,504.042 86.02,504.042L170.286,504.042Z" style="fill:rgb(26,26,26);"/>
                </g>
                <g transform="matrix(0.776,0,0,1,429.673,-0.545896)">
                    <rect x="85.504" y="503.642" width="85.298" height="32.413" style="fill-opacity:0;"/>
                    <path d="M171.317,503.642C171.317,503.421 171.087,503.242 170.802,503.242L85.504,503.242C85.22,503.242 84.989,503.421 84.989,503.642L84.989,536.055C84.989,536.276 85.22,536.455 85.504,536.455L170.802,536.455C171.087,536.455 171.317,536.276 171.317,536.055L171.317,503.642ZM170.286,504.042L170.286,535.655C170.286,535.655 86.02,535.655 86.02,535.655C86.02,535.655 86.02,504.042 86.02,504.042L170.286,504.042Z" style="fill:rgb(26,26,26);"/>
                </g>
                <g transform="matrix(0.776,0,0,1,518.656,-0.545896)">
                    <rect x="85.504" y="503.642" width="85.298" height="32.413" style="fill-opacity:0;"/>
                    <path d="M171.317,503.642C171.317,503.421 171.087,503.242 170.802,503.242L85.504,503.242C85.22,503.242 84.989,503.421 84.989,503.642L84.989,536.055C84.989,536.276 85.22,536.455 85.504,536.455L170.802,536.455C171.087,536.455 171.317,536.276 171.317,536.055L171.317,503.642ZM170.286,504.042L170.286,535.655C170.286,535.655 86.02,535.655 86.02,535.655C86.02,535.655 86.02,504.042 86.02,504.042L170.286,504.042Z" style="fill:rgb(26,26,26);"/>
                </g>
                <g transform="matrix(0.4816,0,0,1,638.27,-0.545896)">
                    <rect x="85.504" y="503.642" width="85.298" height="32.413" style="fill-opacity:0;"/>
                    <path d="M171.633,503.642C171.633,503.421 171.261,503.242 170.802,503.242L85.504,503.242C85.046,503.242 84.674,503.421 84.674,503.642L84.674,536.055C84.674,536.276 85.046,536.455 85.504,536.455L170.802,536.455C171.261,536.455 171.633,536.276 171.633,536.055L171.633,503.642ZM169.971,504.042L169.971,535.655C169.971,535.655 86.335,535.655 86.335,535.655C86.335,535.655 86.335,504.042 86.335,504.042L169.971,504.042Z" style="fill:rgb(26,26,26);"/>
                </g>
                <g transform="matrix(1.05338,0,0,1,-33.7556,83)">
                    <path d="M314.268,490.634L314.268,398.231C314.268,398.231 329.204,398.231 329.204,398.231C329.204,398.231 329.204,419.667 329.204,419.667C329.204,419.888 329.374,420.067 329.583,420.067L392.645,420.067C392.746,420.067 392.842,420.025 392.913,419.95C392.985,419.875 393.025,419.773 393.025,419.667L393.025,397.548C393.025,397.548 414.978,397.548 414.978,397.548C414.978,397.548 414.183,418.969 414.183,418.969C414.175,419.189 414.339,419.375 414.548,419.384C414.758,419.393 414.934,419.221 414.942,419L415.752,397.164C415.756,397.055 415.718,396.949 415.646,396.871C415.575,396.792 415.476,396.748 415.373,396.748L392.645,396.748C392.544,396.748 392.448,396.79 392.376,396.865C392.305,396.94 392.265,397.042 392.265,397.148L392.265,419.267C392.265,419.267 329.963,419.267 329.963,419.267C329.963,419.267 329.963,397.831 329.963,397.831C329.963,397.61 329.793,397.431 329.583,397.431L313.889,397.431C313.679,397.431 313.509,397.61 313.509,397.831L313.509,490.634C313.509,490.855 313.679,491.034 313.889,491.034C314.098,491.034 314.268,490.855 314.268,490.634Z" style="fill:rgb(26,26,26);"/>
                </g>
                <g transform="matrix(1.05338,0,0,1,55.101,82.147)">
                    <path d="M329.583,420.067L392.645,420.067C392.746,420.067 392.842,420.025 392.913,419.95C392.985,419.875 393.025,419.773 393.025,419.667L393.025,397.548C393.025,397.548 415.006,397.548 415.006,397.548C415.006,397.548 415.803,420.705 415.803,420.705C415.811,420.925 415.987,421.098 416.196,421.09C416.406,421.082 416.569,420.896 416.562,420.676L415.752,397.134C415.745,396.919 415.577,396.748 415.373,396.748L392.645,396.748C392.544,396.748 392.448,396.79 392.376,396.865C392.305,396.94 392.265,397.042 392.265,397.148L392.265,419.267C392.265,419.267 329.583,419.267 329.583,419.267C329.374,419.267 329.204,419.446 329.204,419.667C329.204,419.887 329.374,420.067 329.583,420.067Z" style="fill:rgb(26,26,26);"/>
                </g>
                <g transform="matrix(1.05338,0,0,1,147.905,82.147)">
                    <path d="M329.583,420.067L392.645,420.067C392.746,420.067 392.842,420.025 392.913,419.95C392.985,419.875 393.025,419.773 393.025,419.667L393.025,397.548C393.025,397.548 415.006,397.548 415.006,397.548C415.006,397.548 415.803,420.705 415.803,420.705C415.811,420.925 415.987,421.098 416.196,421.09C416.406,421.082 416.569,420.896 416.562,420.676L415.752,397.134C415.745,396.919 415.577,396.748 415.373,396.748L392.645,396.748C392.544,396.748 392.448,396.79 392.376,396.865C392.305,396.94 392.265,397.042 392.265,397.148L392.265,419.267C392.265,419.267 329.583,419.267 329.583,419.267C329.374,419.267 329.204,419.446 329.204,419.667C329.204,419.887 329.374,420.067 329.583,420.067Z" style="fill:rgb(26,26,26);"/>
                </g>
                <g transform="matrix(1.05338,0,0,1,240.709,82.147)">
                    <path d="M329.583,420.067L392.645,420.067C392.746,420.067 392.842,420.025 392.913,419.95C392.985,419.875 393.025,419.773 393.025,419.667L393.025,397.548C393.025,397.548 415.006,397.548 415.006,397.548C415.006,397.548 415.803,420.705 415.803,420.705C415.811,420.925 415.987,421.098 416.196,421.09C416.406,421.082 416.569,420.896 416.562,420.676L415.752,397.134C415.745,396.919 415.577,396.748 415.373,396.748L392.645,396.748C392.544,396.748 392.448,396.79 392.376,396.865C392.305,396.94 392.265,397.042 392.265,397.148L392.265,419.267C392.265,419.267 329.583,419.267 329.583,419.267C329.374,419.267 329.204,419.446 329.204,419.667C329.204,419.887 329.374,420.067 329.583,420.067Z" style="fill:rgb(26,26,26);"/>
                </g>
                <g transform="matrix(1.05338,0,0,1,332.83,83.147)">
                    <path d="M329.583,420.067L366.733,420.067C366.942,420.067 367.113,419.887 367.113,419.667C367.113,419.446 366.942,419.267 366.733,419.267L329.583,419.267C329.374,419.267 329.204,419.446 329.204,419.667C329.204,419.887 329.374,420.067 329.583,420.067Z" style="fill:rgb(26,26,26);"/>
                </g>
                <g transform="matrix(0.924703,0,0,0.961905,1.61324,101.509)">
                    <path d="M199.931,486.274L314.571,486.274C314.81,486.274 315.004,486.087 315.004,485.858C315.004,485.628 314.81,485.442 314.571,485.442L199.931,485.442C199.692,485.442 199.498,485.628 199.498,485.858C199.498,486.087 199.692,486.274 199.931,486.274Z" style="fill:rgb(26,26,26);"/>
                </g>
                <g transform="matrix(0.924703,0,0,0.961905,1.61324,95.5088)">
                    <path d="M199.931,486.274L314.571,486.274C314.81,486.274 315.004,486.087 315.004,485.858C315.004,485.628 314.81,485.442 314.571,485.442L199.931,485.442C199.692,485.442 199.498,485.628 199.498,485.858C199.498,486.087 199.692,486.274 199.931,486.274Z" style="fill:rgb(26,26,26);"/>
                </g>
                <g transform="matrix(0.924703,0,0,0.961905,1.61324,89.5088)">
                    <path d="M199.931,486.274L314.571,486.274C314.81,486.274 315.004,486.087 315.004,485.858C315.004,485.628 314.81,485.442 314.571,485.442L199.931,485.442C199.692,485.442 199.498,485.628 199.498,485.858C199.498,486.087 199.692,486.274 199.931,486.274Z" style="fill:rgb(26,26,26);"/>
                </g>
                <g transform="matrix(0.924703,0,0,0.961905,1.61324,85.1316)">
                    <path d="M199.931,486.274L314.571,486.274C314.81,486.274 315.004,486.087 315.004,485.858C315.004,485.628 314.81,485.442 314.571,485.442L199.931,485.442C199.692,485.442 199.498,485.628 199.498,485.858C199.498,486.087 199.692,486.274 199.931,486.274Z" style="fill:rgb(26,26,26);"/>
                </g>
                <g transform="matrix(0.924703,0,0,0.961905,1.61324,79.1316)">
                    <path d="M199.931,486.274L314.571,486.274C314.81,486.274 315.004,486.087 315.004,485.858C315.004,485.628 314.81,485.442 314.571,485.442L199.931,485.442C199.692,485.442 199.498,485.628 199.498,485.858C199.498,486.087 199.692,486.274 199.931,486.274Z" style="fill:rgb(26,26,26);"/>
                </g>
                <g transform="matrix(0.924703,0,0,0.961905,1.61324,73.1316)">
                    <path d="M199.931,486.274L314.571,486.274C314.81,486.274 315.004,486.087 315.004,485.858C315.004,485.628 314.81,485.442 314.571,485.442L199.931,485.442C199.692,485.442 199.498,485.628 199.498,485.858C199.498,486.087 199.692,486.274 199.931,486.274Z" style="fill:rgb(26,26,26);"/>
                </g>
                <g transform="matrix(0.924703,0,0,0.961905,1.61324,67.6626)">
                    <path d="M199.931,486.274L314.571,486.274C314.81,486.274 315.004,486.087 315.004,485.858C315.004,485.628 314.81,485.442 314.571,485.442L199.931,485.442C199.692,485.442 199.498,485.628 199.498,485.858C199.498,486.087 199.692,486.274 199.931,486.274Z" style="fill:rgb(26,26,26);"/>
                </g>
                <g transform="matrix(0.924703,0,0,0.961905,1.61324,61.6626)">
                    <path d="M199.931,486.274L314.571,486.274C314.81,486.274 315.004,486.087 315.004,485.858C315.004,485.628 314.81,485.442 314.571,485.442L199.931,485.442C199.692,485.442 199.498,485.628 199.498,485.858C199.498,486.087 199.692,486.274 199.931,486.274Z" style="fill:rgb(26,26,26);"/>
                </g>
                <g transform="matrix(0.924703,0,0,0.961905,1.61324,55.6626)">
                    <path d="M199.931,486.274L314.571,486.274C314.81,486.274 315.004,486.087 315.004,485.858C315.004,485.628 314.81,485.442 314.571,485.442L199.931,485.442C199.692,485.442 199.498,485.628 199.498,485.858C199.498,486.087 199.692,486.274 199.931,486.274Z" style="fill:rgb(26,26,26);"/>
                </g>
                <g transform="matrix(0.931765,0,0,1,7.73122,84)">
                    <rect x="362.44" y="195.914" width="362.515" height="25.589" style="fill-opacity:0;"/>
                    <path d="M725.384,195.914C725.384,195.693 725.192,195.514 724.955,195.514L362.44,195.514C362.203,195.514 362.011,195.693 362.011,195.914L362.011,221.503C362.011,221.724 362.203,221.903 362.44,221.903L724.955,221.903C725.192,221.903 725.384,221.724 725.384,221.503L725.384,195.914ZM724.526,196.314L724.526,221.103C724.526,221.103 362.869,221.103 362.869,221.103C362.869,221.103 362.869,196.314 362.869,196.314L724.526,196.314Z" style="fill:rgb(26,26,26);"/>
                </g>
                <g transform="matrix(0.931765,0,0,0.658666,8.82303,133.949)">
                    <rect x="362.44" y="195.914" width="362.515" height="25.589" style="fill-opacity:0;"/>
                    <path d="M725.384,195.914C725.384,195.579 725.192,195.307 724.955,195.307L362.44,195.307C362.203,195.307 362.011,195.579 362.011,195.914L362.011,221.503C362.011,221.839 362.203,222.111 362.44,222.111L724.955,222.111C725.192,222.111 725.384,221.839 725.384,221.503L725.384,195.914ZM724.526,196.521L724.526,220.896C724.526,220.896 362.869,220.896 362.869,220.896C362.869,220.896 362.869,196.521 362.869,196.521C362.869,196.521 724.526,196.521 724.526,196.521Z" style="fill:rgb(26,26,26);"/>
                </g>
            </g>
            <path d="M125.233,334.072L125.233,417.596C125.233,417.816 125.412,417.996 125.633,417.996C125.854,417.996 126.033,417.816 126.033,417.596L126.033,334.072C126.033,333.851 125.854,333.672 125.633,333.672C125.412,333.672 125.233,333.851 125.233,334.072Z"/>
            <path d="M359.096,270.076C358.216,270.672 357.355,271.846 356.553,273.264C355.191,275.672 353.967,278.786 352.962,280.747C352.875,280.917 352.781,281.072 352.707,281.227C352.653,281.342 352.615,281.456 352.568,281.563C352.502,281.672 352.537,281.814 352.645,281.88C352.754,281.947 352.897,281.912 352.963,281.803C353.04,281.708 353.122,281.614 353.196,281.503C353.294,281.354 353.375,281.184 353.467,281.011C354.497,279.072 355.756,275.985 357.144,273.604C357.899,272.308 358.684,271.222 359.502,270.685C359.669,270.573 359.715,270.346 359.603,270.178C359.491,270.01 359.264,269.965 359.096,270.076Z"/>
            <path d="M369.852,269.507C369.858,270.836 369.008,272.477 367.821,274.208C365.693,277.314 362.458,280.672 360.681,283C360.517,283.215 360.355,283.416 360.227,283.619C360.129,283.773 360.053,283.928 359.978,284.074C359.909,284.181 359.94,284.324 360.047,284.393C360.155,284.462 360.298,284.431 360.367,284.323C360.464,284.2 360.576,284.08 360.684,283.943C360.828,283.76 360.97,283.555 361.132,283.347C362.94,281.031 366.216,277.692 368.382,274.596C369.684,272.734 370.576,270.946 370.582,269.507C370.582,269.305 370.419,269.142 370.217,269.142C370.015,269.142 369.852,269.305 369.852,269.507Z"/>
            <path d="M381.231,269.811C380.663,271.301 379.999,272.783 379.291,274.253C378.336,276.235 377.3,278.193 376.314,280.117C376.247,280.247 376.17,280.373 376.114,280.508C376.076,280.601 376.053,280.695 376.021,280.79C375.963,280.903 376.007,281.043 376.12,281.102C376.233,281.161 376.373,281.117 376.431,281.003C376.491,280.923 376.555,280.851 376.609,280.766C376.687,280.643 376.747,280.509 376.816,280.38C377.839,278.469 378.903,276.52 379.888,274.546C380.626,273.068 381.317,271.576 381.912,270.076C381.986,269.888 381.892,269.676 381.704,269.603C381.516,269.53 381.304,269.623 381.231,269.811Z"/>
            <path d="M386.884,269.07C386.894,270.542 386.599,272.072 386.166,273.595C385.584,275.641 384.75,277.674 384.054,279.542C384.004,279.676 383.945,279.805 383.908,279.941C383.882,280.035 383.871,280.128 383.853,280.222C383.809,280.342 383.87,280.475 383.989,280.519C384.109,280.564 384.242,280.503 384.286,280.383C384.334,280.3 384.388,280.224 384.43,280.137C384.49,280.012 384.532,279.877 384.584,279.745C385.32,277.875 386.187,275.836 386.804,273.781C387.279,272.199 387.604,270.606 387.615,269.07C387.615,268.869 387.451,268.705 387.249,268.705C387.048,268.705 386.884,268.869 386.884,269.07Z"/>
            <path d="M405.306,267.532C403.223,270.157 401.158,272.833 399.11,275.525C397.27,277.942 395.444,280.371 393.628,282.786C393.526,282.921 393.419,283.051 393.324,283.19C393.228,283.33 393.147,283.477 393.057,283.622C392.98,283.723 393,283.868 393.101,283.946C393.203,284.023 393.348,284.003 393.425,283.901C393.553,283.761 393.685,283.627 393.807,283.481C393.988,283.263 394.151,283.032 394.324,282.807C396.898,279.452 399.49,276.069 402.107,272.732C403.358,271.138 404.614,269.554 405.877,267.988C406.003,267.831 405.977,267.601 405.82,267.475C405.662,267.349 405.432,267.374 405.306,267.532Z"/>
            <path d="M420.152,269.732C420.152,269.742 420.163,269.755 420.178,269.769C420.175,269.787 420.172,269.805 420.171,269.82C420.103,270.635 419.153,272.621 419.041,272.878C418.381,274.392 417.609,275.789 416.75,277.12C415.576,278.941 414.234,280.633 412.806,282.342C412.728,282.435 412.646,282.525 412.573,282.623C412.499,282.722 412.438,282.826 412.369,282.929C412.286,283.026 412.297,283.172 412.393,283.255C412.49,283.339 412.636,283.328 412.719,283.231C412.811,283.148 412.906,283.071 412.993,282.983C413.051,282.925 413.102,282.862 413.156,282.801C414.391,281.391 415.54,279.97 416.593,278.486C417.766,276.832 418.808,275.089 419.674,273.158C419.78,272.922 420.566,271.291 420.816,270.309C420.9,269.978 420.918,269.704 420.877,269.538C420.832,269.358 420.731,269.244 420.604,269.18C420.423,269.09 420.204,269.163 420.113,269.344C420.048,269.474 420.068,269.624 420.152,269.732ZM420.18,269.763C420.184,269.735 420.186,269.712 420.17,269.716C420.158,269.72 420.152,269.725 420.152,269.732L420.163,269.745C420.167,269.749 420.17,269.753 420.174,269.758L420.18,269.763L420.178,269.769C420.201,269.79 420.235,269.811 420.26,269.825C420.23,269.808 420.203,269.787 420.18,269.763Z"/>
            <path d="M427.749,269.854C427.948,269.918 428.116,270.117 428.284,270.384C428.501,270.73 428.697,271.187 428.874,271.702C429.455,273.392 429.832,275.678 430.036,276.862C430.058,276.994 430.069,277.115 430.097,277.215C430.124,277.31 430.161,277.381 430.188,277.446C430.212,277.571 430.333,277.654 430.458,277.63C430.583,277.606 430.666,277.485 430.642,277.36C430.643,277.293 430.656,277.217 430.65,277.123C430.644,277.02 430.617,276.903 430.598,276.772C430.418,275.56 430.078,273.221 429.52,271.487C429.295,270.786 429.03,270.183 428.732,269.773C428.504,269.459 428.247,269.252 427.98,269.16C427.789,269.097 427.582,269.2 427.518,269.391C427.454,269.583 427.558,269.79 427.749,269.854Z"/>
            <path d="M666.862,269.234C667.713,270.917 668.981,272.405 670.438,273.802C673.286,276.533 676.862,278.914 679.324,281.795C679.495,281.996 679.653,282.205 679.821,282.404C679.936,282.539 680.058,282.663 680.173,282.795C680.247,282.899 680.391,282.923 680.495,282.849C680.599,282.775 680.623,282.631 680.549,282.527C680.457,282.37 680.37,282.213 680.265,282.062C680.112,281.841 679.933,281.637 679.758,281.428C677.315,278.509 673.748,276.081 670.912,273.312C669.527,271.96 668.317,270.527 667.516,268.907C667.426,268.727 667.206,268.653 667.026,268.743C666.845,268.834 666.772,269.053 666.862,269.234Z"/>
            <path d="M659.847,270.906C660.2,272.287 660.81,273.723 661.55,275.167C662.99,277.973 664.922,280.816 666.368,283.359C666.473,283.543 666.565,283.731 666.675,283.907C666.75,284.028 666.836,284.138 666.915,284.253C666.974,284.366 667.113,284.41 667.226,284.351C667.339,284.292 667.383,284.152 667.324,284.039C667.273,283.906 667.229,283.772 667.168,283.641C667.08,283.45 666.968,283.269 666.864,283.08C665.455,280.528 663.561,277.673 662.159,274.859C661.459,273.457 660.883,272.066 660.556,270.729C660.507,270.533 660.309,270.414 660.113,270.463C659.917,270.512 659.798,270.71 659.847,270.906Z"/>
            <path d="M649.384,270.237C648.989,271.186 648.796,272.329 648.711,273.517C648.604,275.02 648.661,276.596 648.661,277.925C648.661,278.023 648.65,278.12 648.66,278.215C648.667,278.284 648.689,278.343 648.703,278.409C648.699,278.537 648.8,278.643 648.927,278.647C649.055,278.651 649.161,278.55 649.165,278.423C649.183,278.357 649.207,278.297 649.218,278.227C649.232,278.132 649.225,278.032 649.228,277.933C649.263,276.618 649.236,275.057 649.374,273.572C649.477,272.465 649.669,271.402 650.056,270.524C650.135,270.339 650.049,270.124 649.864,270.045C649.679,269.965 649.464,270.051 649.384,270.237Z"/>
            <path d="M639.839,271.801C639.43,271.598 638.814,271.707 638.15,272.037C637.117,272.55 635.915,273.546 635.341,273.894C632.741,275.471 630.338,277.529 627.849,279.333C626.885,280.032 625.877,280.642 624.899,281.27C624.788,281.341 624.686,281.422 624.578,281.497C624.465,281.557 624.423,281.698 624.484,281.81C624.544,281.922 624.684,281.964 624.797,281.904C624.962,281.834 625.127,281.769 625.287,281.688C625.917,281.37 626.506,280.968 627.103,280.573C629.995,278.655 632.717,276.25 635.695,274.483C636.261,274.147 637.447,273.176 638.466,272.681C638.72,272.558 638.96,272.466 639.175,272.431C639.304,272.41 639.419,272.407 639.512,272.454C639.693,272.544 639.912,272.471 640.002,272.291C640.093,272.11 640.019,271.891 639.839,271.801Z"/>
            <path d="M615.864,275.336C615.144,275.922 614.437,276.524 613.735,277.132C612.269,278.403 610.826,279.702 609.339,280.949C609.24,281.032 609.134,281.107 609.042,281.198C608.979,281.26 608.93,281.33 608.872,281.398C608.773,281.478 608.758,281.624 608.838,281.723C608.918,281.822 609.063,281.838 609.163,281.758C609.232,281.723 609.3,281.697 609.366,281.655C609.408,281.628 609.444,281.594 609.483,281.563C609.871,281.256 610.254,280.943 610.636,280.628C612.536,279.06 614.384,277.427 616.321,275.907C616.478,275.781 616.504,275.55 616.378,275.393C616.252,275.235 616.022,275.21 615.864,275.336Z"/>
            <path d="M597.614,277.029C596.458,277.5 595.206,277.832 593.91,278.086C591.226,278.614 588.358,278.811 585.758,279.201C585.575,279.228 585.39,279.245 585.212,279.286C585.089,279.314 584.974,279.357 584.855,279.394C584.729,279.415 584.644,279.534 584.665,279.66C584.686,279.785 584.805,279.87 584.931,279.849C585.054,279.846 585.174,279.851 585.298,279.84C585.478,279.825 585.657,279.789 585.839,279.764C588.454,279.412 591.335,279.25 594.037,278.756C595.382,278.51 596.682,278.18 597.886,277.707C598.073,277.632 598.164,277.42 598.089,277.232C598.014,277.045 597.802,276.954 597.614,277.029Z"/>
            <path d="M572.217,273.134C571.26,273.788 570.306,274.435 569.339,275.065C568.473,275.629 567.596,276.18 566.696,276.707C566.647,276.737 566.593,276.759 566.547,276.795C566.498,276.833 566.465,276.878 566.42,276.922C566.309,276.984 566.269,277.125 566.331,277.236C566.393,277.347 566.534,277.387 566.646,277.325C566.705,277.311 566.759,277.306 566.815,277.285C566.85,277.272 566.881,277.25 566.914,277.232C567.654,276.831 568.377,276.409 569.091,275.977C570.283,275.257 571.45,274.504 572.623,273.742C572.791,273.63 572.836,273.403 572.724,273.235C572.612,273.067 572.385,273.022 572.217,273.134Z"/>
            <path d="M549.009,275.507L549,275.511C549.003,275.51 549.009,275.509 549.009,275.507C549.183,275.414 549.253,275.198 549.164,275.021C549.074,274.841 548.854,274.767 548.674,274.858C548.557,274.918 548.43,275.034 548.32,275.216C548.154,275.489 547.993,275.942 547.852,276.475C547.567,277.555 547.341,278.972 547.196,279.697C547.181,279.775 547.157,279.842 547.153,279.903C547.149,279.961 547.165,280.002 547.166,280.043C547.129,280.165 547.197,280.294 547.319,280.332C547.441,280.369 547.57,280.301 547.608,280.179C547.636,280.139 547.669,280.101 547.697,280.038C547.724,279.978 547.733,279.901 547.752,279.819C547.922,279.109 548.191,277.717 548.508,276.659C548.623,276.277 548.743,275.941 548.867,275.706C548.916,275.614 548.974,275.455 549.009,275.506C549.009,275.506 549.009,275.506 549.009,275.507Z"/>
            <path d="M538.902,277.641C538.495,278.496 538.278,279.336 537.736,279.865C537.448,280.146 537.062,280.324 536.492,280.367C536.471,280.369 536.448,280.366 536.427,280.372C536.389,280.382 536.366,280.404 536.329,280.421C536.202,280.421 536.098,280.525 536.098,280.652C536.098,280.78 536.202,280.883 536.329,280.883C536.371,280.902 536.399,280.921 536.442,280.93C536.467,280.935 536.493,280.93 536.518,280.929C537.267,280.916 537.776,280.678 538.167,280.326C538.781,279.774 539.077,278.882 539.556,277.968C539.646,277.788 539.573,277.568 539.392,277.478C539.212,277.388 538.992,277.461 538.902,277.641Z"/>
            <path d="M524.022,269.872C523.813,271.048 523.585,272.218 523.313,273.381C523.292,273.471 523.254,273.559 523.25,273.651C523.247,273.698 523.261,273.733 523.266,273.779C523.233,273.902 523.306,274.029 523.43,274.062C523.553,274.096 523.679,274.023 523.713,273.899C523.741,273.862 523.77,273.838 523.792,273.796C523.955,273.472 523.991,273.099 524.084,272.749C524.324,271.843 524.536,270.931 524.739,270.015C524.778,269.818 524.65,269.625 524.452,269.585C524.254,269.546 524.062,269.674 524.022,269.872Z"/>
            <path d="M510.511,272.409C510.139,273.226 509.89,274.085 509.704,274.963C509.461,276.115 509.323,277.298 509.145,278.455C509.134,278.532 509.111,278.608 509.11,278.685C509.109,278.742 509.123,278.79 509.13,278.847C509.107,278.972 509.19,279.092 509.316,279.115C509.441,279.138 509.562,279.055 509.584,278.929C509.611,278.878 509.641,278.837 509.659,278.782C509.685,278.708 509.69,278.628 509.704,278.55C509.918,277.411 510.082,276.243 510.353,275.109C510.55,274.286 510.803,273.481 511.173,272.72C511.259,272.537 511.18,272.319 510.998,272.233C510.815,272.148 510.597,272.226 510.511,272.409Z"/>
            <path d="M495.634,273.807C495.542,274.437 495.453,275.056 495.329,275.679C495.32,275.726 495.296,275.773 495.301,275.822C495.304,275.856 495.32,275.864 495.333,275.895C495.301,276.019 495.375,276.145 495.499,276.177C495.622,276.209 495.748,276.134 495.78,276.011C495.808,275.994 495.82,275.998 495.84,275.973C495.847,275.964 495.847,275.951 495.851,275.94C495.886,275.83 495.917,275.719 495.948,275.608C496.103,275.056 496.224,274.503 496.353,273.942C496.39,273.743 496.259,273.552 496.061,273.515C495.863,273.478 495.671,273.609 495.634,273.807Z"/>
        </g>
    </g>
</svg>
