<?xml version="1.0" encoding="UTF-8" standalone="no"?><!DOCTYPE svg PUBLIC "-//W3C//DTD SVG 1.1//EN" "http://www.w3.org/Graphics/SVG/1.1/DTD/svg11.dtd"><svg width="100%" height="100%" viewBox="0 0 1998 2481" version="1.1" xmlns="http://www.w3.org/2000/svg" xmlns:xlink="http://www.w3.org/1999/xlink" xml:space="preserve" xmlns:serif="http://www.serif.com/" style="fill-rule:evenodd;clip-rule:evenodd;stroke-linejoin:round;stroke-miterlimit:2;"><g><path d="M1392.06,1107.74l182.331,-0l4.12,-836.07c1.475,-21.433 -94.624,-243.391 -186.22,-0.516l-0.231,836.586Zm3.335,-3.334c0.015,-56.345 0.222,-808.22 0.229,-832.643c13.52,-35.741 27.111,-61.27 40.491,-78.746c13.029,-17.016 25.739,-26.272 37.972,-29.701c22.604,-6.336 43.09,7.446 59.684,26.702c18.076,20.975 31.491,48.668 37.709,66.432c2.492,7.121 3.877,12.505 3.706,14.991c-0.005,0.07 -0.008,0.141 -0.008,0.212c-0,0 -3.822,775.636 -4.104,832.753l-175.679,0Z"/><path d="M1260.22,493.207l-17.999,-0l0,-56.767l-10.424,-9.722l119.358,0l-0,828.229l-93.208,1.399l2.273,-763.139Zm3.333,0.01c0.003,-0.886 -0.347,-1.736 -0.973,-2.364c-0.625,-0.627 -1.474,-0.979 -2.36,-0.979l-14.666,-0c0,-0 0,-53.434 0,-53.434c0,-0.924 -0.383,-1.807 -1.059,-2.438l-4.236,-3.95c-0.001,-0 107.563,-0 107.563,-0l-0,821.612c-0,-0 -86.531,1.298 -86.531,1.298c-0,0 2.262,-759.745 2.262,-759.745Z"/><path d="M1904.04,507.245l57.662,-0l-0,-55.808l33.396,-9.558l-382.382,0l0,814.241l286.022,0l5.302,-748.875Zm0,-3.333c-1.831,-0 -3.32,1.478 -3.333,3.309l-5.279,745.566c0,-0 -279.378,-0 -279.378,-0c-0,-0 -0,-807.574 -0,-807.574c-0,-0 355.285,-0 355.285,-0c0,-0 -10.55,3.019 -10.55,3.019c-1.431,0.409 -2.416,1.717 -2.416,3.205l-0,52.475c-0,-0 -54.329,-0 -54.329,-0Z"/><path d="M1483.06,1.603c0,-0 -1.022,26.788 -6.664,48.218c-2.355,8.944 -5.478,16.956 -9.759,21.519c-2.264,2.413 -6.361,4.741 -11.642,7.319c-8.273,4.039 -19.381,8.583 -31.193,14.554c-29.939,15.134 -64.262,39.386 -69.397,87.278c-0.005,0.044 -0.008,0.089 -0.009,0.134l-6.507,251.475c-0.024,0.919 0.703,1.685 1.623,1.709c0.919,0.024 1.685,-0.703 1.709,-1.623l6.505,-251.406c5.014,-46.483 38.507,-69.897 67.579,-84.592c11.797,-5.964 22.891,-10.5 31.152,-14.533c5.742,-2.804 10.149,-5.411 12.61,-8.034c4.578,-4.879 8.035,-13.39 10.553,-22.952c5.726,-21.751 6.771,-48.939 6.771,-48.939c0.035,-0.919 -0.682,-1.694 -1.601,-1.729c-0.92,-0.035 -1.694,0.683 -1.73,1.602Z"/><path d="M1484.12,3.69c0,-0 1.045,27.188 6.772,48.939c2.517,9.562 5.975,18.073 10.552,22.951c2.461,2.623 6.869,5.23 12.61,8.034c8.262,4.034 19.355,8.57 31.152,14.533c29.062,14.69 62.541,38.092 67.574,84.54c0.003,0.03 -0.148,266.369 -0.148,266.369c-0,0.92 0.746,1.667 1.666,1.668c0.92,0 1.667,-0.746 1.668,-1.666l0.15,-266.429c0,-0.06 -0.003,-0.12 -0.009,-0.179c-5.136,-47.891 -39.458,-72.144 -69.397,-87.278c-11.813,-5.971 -22.92,-10.514 -31.193,-14.553c-5.281,-2.579 -9.378,-4.907 -11.642,-7.319c-4.281,-4.564 -7.405,-12.576 -9.76,-21.52c-5.642,-21.43 -6.664,-48.218 -6.664,-48.218c-0.035,-0.919 -0.81,-1.637 -1.729,-1.601c-0.919,0.035 -1.637,0.81 -1.602,1.729Z"/><path d="M-0,1252.93l1997.87,-0l-0,1226.3l-1980.79,0l-17.085,-1226.3Zm3.38,3.333l1991.16,0c0,0 0,1219.64 0,1219.64c0.001,-0 -1974.17,-0 -1974.17,-0l-16.992,-1219.64Z"/><path d="M61.291,1351.98c-0,0 53.722,51.656 88.945,97.714c14.934,19.527 26.568,38.002 29.156,51.036c8.734,43.983 -0.032,799.843 -0.032,799.843c-0,0.015 -0,0.031 0,0.046c0,0 0.982,72.063 -105.253,158.924c-0.712,0.582 -0.817,1.633 -0.235,2.345c0.582,0.712 1.633,0.817 2.345,0.235c107.28,-87.716 106.487,-160.802 106.476,-161.552c0.049,-4.173 8.685,-756.592 -0.032,-800.49c-2.654,-13.367 -14.462,-32.386 -29.777,-52.412c-35.359,-46.235 -89.283,-98.091 -89.283,-98.091c-0.663,-0.638 -1.719,-0.617 -2.357,0.046c-0.637,0.663 -0.616,1.719 0.047,2.356Z"/><path d="M321.17,1351.14c-0,-0 -52.739,51.092 -87.386,96.868c-15.006,19.827 -26.595,38.701 -29.25,52.068c-8.741,44.021 -0.031,800.53 -0.031,800.53c-0,0.028 0.001,0.055 0.003,0.083c-0,-0 4.54,76.865 112.291,164.965c0.712,0.582 1.763,0.477 2.345,-0.235c0.583,-0.712 0.477,-1.763 -0.235,-2.346c-104.386,-85.349 -110.868,-159.831 -111.069,-162.512c-0.082,-6.894 -8.728,-756.054 -0.034,-799.836c2.588,-13.034 14.005,-31.372 28.638,-50.705c34.511,-45.598 87.047,-96.486 87.047,-96.486c0.661,-0.64 0.678,-1.696 0.038,-2.357c-0.64,-0.66 -1.696,-0.677 -2.357,-0.037Z"/><path d="M61.543,1328.04l260.983,0l0,1151.72l-251.983,-0l-9,-1151.72Zm3.36,3.334l254.29,-0c0,65.639 0,1079.41 0,1145.05c0,0 -245.343,0 -245.343,0c-0.527,-67.482 -8.947,-1145.05 -8.947,-1145.05l-0,-0Z"/><path d="M1710.66,1283.05l284.392,-0c0.919,-0 1.666,-0.747 1.666,-1.667c0,-0.92 -0.747,-1.666 -1.666,-1.666l-284.392,-0c-0.92,-0 -1.667,0.746 -1.667,1.666c-0,0.92 0.747,1.667 1.667,1.667Z"/><path d="M145.075,1440.42c-0,0 -44.37,60.482 -51.572,89.59c-7.23,29.217 -0.023,69.672 -0.023,69.672c0.05,0.281 0.172,0.545 0.354,0.766c-0,0 45.898,55.717 71.802,102.101c10.909,19.534 18.349,37.335 16.946,48.467c-0.115,0.913 0.532,1.747 1.445,1.862c0.912,0.115 1.747,-0.533 1.862,-1.445c1.46,-11.579 -5.996,-30.192 -17.343,-50.51c-24.849,-44.494 -68.003,-97.541 -71.861,-102.256c-0.734,-4.338 -6.603,-40.957 0.053,-67.856c7.113,-28.745 51.023,-88.417 51.023,-88.417c0.545,-0.742 0.385,-1.786 -0.356,-2.33c-0.741,-0.545 -1.785,-0.385 -2.33,0.356Z"/><path d="M182.809,2065.01c0,0 -49.979,82.59 -79.021,114.558c-0.187,0.206 -0.32,0.456 -0.386,0.727c0,0 -9.172,37.858 1.944,72.111c3.327,10.254 12.833,25.464 24.76,42.013c27.525,38.195 67.931,83.691 73.274,91.476c0.521,0.759 1.559,0.952 2.317,0.431c0.759,-0.52 0.952,-1.559 0.431,-2.317c-5.346,-7.79 -45.775,-53.319 -73.318,-91.538c-11.675,-16.2 -21.036,-31.056 -24.294,-41.094c-10.167,-31.332 -2.904,-65.759 -1.97,-69.885c29.219,-32.35 79.115,-114.756 79.115,-114.756c0.476,-0.786 0.224,-1.812 -0.563,-2.288c-0.787,-0.477 -1.812,-0.225 -2.289,0.562Z"/><path d="M182.468,1628.26c0,-0 -39.344,48.051 -66.066,88.96c-11.558,17.693 -20.743,34.079 -23.492,44.74c-9.083,35.222 -0.051,260.375 -0.051,260.375c0.011,0.276 0.09,0.544 0.231,0.782c-0,-0 32.095,54.179 59.715,90.051c12.054,15.658 23.359,27.804 30.808,30.801c0.854,0.343 1.825,-0.071 2.168,-0.924c0.344,-0.854 -0.07,-1.825 -0.924,-2.169c-7.152,-2.877 -17.837,-14.708 -29.411,-29.741c-26.197,-34.025 -56.433,-84.583 -59.272,-89.353c-0.432,-10.777 -8.858,-224.783 -0.036,-258.989c2.69,-10.433 11.744,-26.435 23.054,-43.75c26.636,-40.777 65.856,-88.671 65.856,-88.671c0.582,-0.712 0.478,-1.763 -0.234,-2.346c-0.712,-0.582 -1.763,-0.478 -2.346,0.234Z"/><path d="M182.809,2065.01c0,0 -49.979,82.59 -79.021,114.558c-0.187,0.206 -0.32,0.456 -0.386,0.727c0,0 -9.172,37.858 1.944,72.111c0.283,0.875 1.224,1.355 2.099,1.071c0.875,-0.284 1.355,-1.225 1.071,-2.1c-10.167,-31.332 -2.904,-65.759 -1.97,-69.885c29.219,-32.35 79.115,-114.756 79.115,-114.756c0.476,-0.786 0.224,-1.812 -0.563,-2.288c-0.787,-0.477 -1.812,-0.225 -2.289,0.562Z"/><path d="M239.924,1442.38c0,-0 43.911,59.672 51.023,88.417c6.656,26.896 0.789,63.508 0.052,67.857c-3.878,4.741 -47.017,57.772 -71.859,102.255c-11.347,20.318 -18.803,38.931 -17.343,50.51c0.115,0.912 0.949,1.56 1.862,1.445c0.913,-0.115 1.56,-0.95 1.445,-1.862c-1.403,-11.132 6.037,-28.933 16.946,-48.468c25.904,-46.383 71.802,-102.1 71.802,-102.1c0.182,-0.221 0.304,-0.485 0.354,-0.766c-0,-0 7.207,-40.455 -0.023,-69.672c-7.203,-29.108 -51.572,-89.59 -51.572,-89.59c-0.545,-0.741 -1.589,-0.901 -2.33,-0.356c-0.741,0.544 -0.901,1.588 -0.357,2.33Z"/><path d="M202.025,2066.72c-0,0 49.898,82.411 79.115,114.753c0.931,4.116 8.199,38.55 -1.97,69.888c-3.258,10.038 -12.62,24.894 -24.294,41.093c-27.543,38.22 -67.973,83.748 -73.319,91.539c-0.52,0.758 -0.327,1.797 0.431,2.317c0.759,0.521 1.797,0.327 2.318,-0.431c5.342,-7.785 45.749,-53.281 73.274,-91.476c11.926,-16.549 21.432,-31.759 24.76,-42.013c11.115,-34.253 1.943,-72.111 1.943,-72.111c-0.065,-0.271 -0.198,-0.521 -0.386,-0.727c-29.041,-31.968 -79.021,-114.558 -79.021,-114.558c-0.476,-0.787 -1.502,-1.039 -2.289,-0.562c-0.786,0.476 -1.039,1.501 -0.562,2.288Z"/><path d="M202.638,1630.35c0,-0 39.22,47.894 65.856,88.671c11.31,17.315 20.363,33.317 23.054,43.75c8.821,34.205 0.396,248.208 -0.035,258.985c-2.828,4.752 -33.071,55.325 -59.273,89.357c-11.575,15.033 -22.259,26.864 -29.412,29.741c-0.853,0.344 -1.267,1.315 -0.924,2.169c0.344,0.853 1.315,1.267 2.169,0.924c7.449,-2.997 18.753,-15.144 30.808,-30.801c27.619,-35.872 59.715,-90.051 59.715,-90.051c0.14,-0.238 0.22,-0.506 0.231,-0.782c0,-0 9.032,-225.153 -0.051,-260.375c-2.75,-10.661 -11.934,-27.047 -23.492,-44.74c-26.722,-40.909 -66.067,-88.96 -66.067,-88.96c-0.583,-0.712 -1.633,-0.817 -2.345,-0.234c-0.712,0.583 -0.817,1.634 -0.234,2.346Z"/><path d="M1749.04,1332.53c-0,-0 41.927,50.436 69.53,96.361c11.723,19.504 20.88,38.17 23.002,51.745c7.15,45.746 -0.02,831.901 -0.02,831.901c-0,0.029 0,0.059 0.002,0.088c-0,-0 2.88,69.033 -84.112,159.393c-0.638,0.663 -0.618,1.719 0.044,2.357c0.663,0.638 1.719,0.617 2.357,-0.045c87.622,-91.015 85.082,-160.85 85.041,-161.84c0.06,-6.37 7.107,-786.781 -0.019,-832.369c-2.169,-13.881 -11.451,-33.003 -23.438,-52.947c-27.721,-46.121 -69.824,-96.775 -69.824,-96.775c-0.588,-0.707 -1.64,-0.804 -2.347,-0.216c-0.707,0.588 -0.804,1.639 -0.216,2.347Z"/><path d="M1954.66,1327.17c0,0 -41.737,52.248 -69.239,99.324c-11.888,20.35 -21.1,39.758 -23.269,53.633c-7.134,45.644 -0.061,827.922 -0.02,832.427c-0.023,1.609 -0.466,69.753 86.719,160.313c0.638,0.663 1.694,0.683 2.356,0.045c0.663,-0.638 0.683,-1.694 0.045,-2.357c-87.008,-90.376 -85.787,-157.963 -85.787,-157.963c0,-0.017 0.001,-0.033 0,-0.049c0,-0 -7.17,-786.155 -0.02,-831.901c2.123,-13.582 11.217,-32.547 22.855,-52.467c27.391,-46.887 68.964,-98.924 68.964,-98.924c0.575,-0.719 0.457,-1.768 -0.261,-2.342c-0.719,-0.575 -1.769,-0.457 -2.343,0.261Z"/><path d="M1748.67,1306.72l207.195,-0l0,1171.21l-200.05,0l-7.145,-1171.21Zm3.354,3.333l200.508,0c-0,-0 -0,1164.55 -0,1164.55c0,0 -193.404,0 -193.404,0l-7.104,-1164.55Z"/><path d="M1813.45,1418.19c-0,0 -36.296,62.832 -42.187,93.077c-5.904,30.314 -0.014,72.287 -0.014,72.287c0.033,0.24 0.119,0.47 0.252,0.674c-0,0 37.579,57.956 58.789,106.203c8.966,20.396 15.055,39.008 13.902,50.631c-0.091,0.916 0.578,1.732 1.494,1.823c0.915,0.091 1.732,-0.578 1.823,-1.494c1.19,-11.995 -4.914,-31.252 -14.168,-52.302c-20.394,-46.391 -55.852,-101.723 -58.842,-106.361c-0.552,-4.123 -5.461,-42.603 0.036,-70.823c5.828,-29.92 41.8,-92.046 41.8,-92.046c0.461,-0.796 0.188,-1.817 -0.608,-2.277c-0.797,-0.461 -1.817,-0.188 -2.277,0.608Z"/><path d="M1844.34,2067.74c-0,-0 -40.92,85.902 -64.697,119.152c-0.14,0.196 -0.236,0.42 -0.281,0.657c-0,-0 -7.488,39.256 1.584,74.774c9.008,35.262 73.963,127.16 80.229,138.759c0.437,0.81 1.449,1.112 2.259,0.675c0.809,-0.438 1.111,-1.45 0.674,-2.259c-6.234,-11.541 -70.97,-102.915 -79.932,-138c-8.395,-32.864 -2.319,-68.992 -1.606,-72.964c23.913,-33.618 64.779,-119.36 64.779,-119.36c0.396,-0.831 0.043,-1.826 -0.788,-2.222c-0.83,-0.395 -1.826,-0.043 -2.221,0.788Z"/><path d="M1844.06,1613.54c-0,-0 -65.83,102.246 -73.282,138.951c-7.432,36.614 -0.032,270.664 -0.032,270.664c0.007,0.226 0.06,0.447 0.155,0.652c0,-0 26.27,56.336 48.876,93.636c5.853,9.659 11.467,18.046 16.32,23.879c3.394,4.078 6.466,6.93 8.996,8.223c0.819,0.418 1.824,0.093 2.242,-0.726c0.419,-0.819 0.094,-1.824 -0.725,-2.242c-2.252,-1.151 -4.929,-3.755 -7.95,-7.387c-4.77,-5.733 -10.279,-13.982 -16.032,-23.474c-21.548,-35.554 -46.433,-88.464 -48.559,-93.005c-0.316,-9.964 -7.27,-233.861 -0.024,-269.557c7.393,-36.418 72.816,-137.808 72.816,-137.808c0.499,-0.773 0.276,-1.806 -0.497,-2.304c-0.774,-0.498 -1.806,-0.275 -2.304,0.498Z"/><path d="M1844.34,2067.74c-0,-0 -40.92,85.902 -64.697,119.152c-0.14,0.196 -0.236,0.42 -0.281,0.657c-0,-0 -7.488,39.256 1.584,74.774c0.228,0.891 1.136,1.43 2.028,1.202c0.891,-0.227 1.43,-1.136 1.202,-2.027c-8.395,-32.864 -2.319,-68.992 -1.606,-72.964c23.913,-33.618 64.779,-119.36 64.779,-119.36c0.396,-0.831 0.043,-1.826 -0.788,-2.222c-0.83,-0.395 -1.826,-0.043 -2.221,0.788Z"/><path d="M1891.09,1419.84c0,0 35.973,62.126 41.801,92.046c5.495,28.212 0.59,66.679 0.035,70.819c-2.995,4.651 -38.449,59.978 -58.842,106.366c-9.253,21.049 -15.358,40.307 -14.167,52.302c0.091,0.915 0.908,1.584 1.823,1.494c0.915,-0.091 1.585,-0.908 1.494,-1.824c-1.154,-11.622 4.936,-30.235 13.902,-50.631c21.209,-48.246 58.789,-106.203 58.789,-106.203c0.132,-0.203 0.218,-0.434 0.252,-0.674c-0,-0 5.89,-41.973 -0.015,-72.286c-5.891,-30.245 -42.186,-93.078 -42.186,-93.078c-0.461,-0.796 -1.481,-1.069 -2.277,-0.608c-0.797,0.461 -1.069,1.481 -0.609,2.277Z"/><path d="M1860.07,2069.16c-0,-0 40.869,85.749 64.78,119.357c0.706,3.947 6.79,40.091 -1.608,72.967c-8.962,35.085 -73.697,126.459 -79.931,138c-0.438,0.81 -0.136,1.822 0.674,2.259c0.809,0.437 1.821,0.135 2.258,-0.674c6.266,-11.6 71.222,-103.497 80.229,-138.76c9.073,-35.517 1.585,-74.774 1.585,-74.774c-0.045,-0.237 -0.141,-0.461 -0.281,-0.657c-23.778,-33.25 -64.697,-119.152 -64.697,-119.152c-0.396,-0.83 -1.391,-1.183 -2.222,-0.788c-0.83,0.396 -1.183,1.392 -0.787,2.222Z"/><path d="M1860.57,1615.33c0,0 65.424,101.39 72.816,137.808c7.247,35.696 0.293,259.587 -0.021,269.553c-2.112,4.51 -27.006,57.443 -48.561,93.009c-5.753,9.492 -11.262,17.742 -16.032,23.474c-3.022,3.632 -5.698,6.236 -7.95,7.387c-0.819,0.419 -1.144,1.423 -0.726,2.243c0.419,0.819 1.424,1.144 2.243,0.725c2.529,-1.292 5.602,-4.144 8.995,-8.223c4.853,-5.832 10.467,-14.22 16.32,-23.878c22.606,-37.301 48.876,-93.637 48.876,-93.637c0.096,-0.204 0.149,-0.426 0.156,-0.651c-0,-0 7.4,-234.051 -0.033,-270.665c-7.451,-36.705 -73.281,-138.951 -73.281,-138.951c-0.499,-0.773 -1.531,-0.996 -2.304,-0.498c-0.773,0.499 -0.996,1.531 -0.498,2.304Z"/><path d="M565.56,1352.99c-0,-0 53.722,51.655 88.945,97.713c14.934,19.527 26.568,38.002 29.156,51.036c8.734,43.984 -0.032,799.843 -0.032,799.843c0,0.016 0,0.031 0,0.047c0,0 0.976,70.177 -105.253,157.033c-0.712,0.582 -0.817,1.633 -0.235,2.345c0.582,0.712 1.633,0.817 2.345,0.235c107.212,-87.659 106.489,-158.831 106.476,-159.661c0.049,-4.203 8.685,-756.593 -0.031,-800.491c-2.655,-13.367 -14.462,-32.385 -29.778,-52.412c-35.358,-46.234 -89.283,-98.091 -89.283,-98.091c-0.663,-0.637 -1.719,-0.617 -2.356,0.046c-0.638,0.663 -0.617,1.719 0.046,2.357Z"/><path d="M565.56,1352.99c-0,-0 53.722,51.655 88.945,97.713c14.934,19.527 26.568,38.002 29.156,51.036c8.734,43.984 -0.032,799.843 -0.032,799.843c-0.01,0.92 0.728,1.675 1.648,1.686c0.919,0.011 1.675,-0.727 1.685,-1.647c0,-0 8.71,-756.51 -0.031,-800.531c-2.655,-13.367 -14.462,-32.385 -29.778,-52.412c-35.358,-46.234 -89.283,-98.091 -89.283,-98.091c-0.663,-0.637 -1.719,-0.617 -2.356,0.046c-0.638,0.663 -0.617,1.719 0.046,2.357Z"/><path d="M825.257,1352.49c0,0 -52.649,50.928 -87.243,96.607c-14.983,19.785 -26.556,38.629 -29.21,51.996c-8.742,44.021 -0.032,800.531 -0.032,800.531c0,0.022 0.001,0.045 0.002,0.067c0,0 3.801,75.874 111.563,163.984c0.712,0.582 1.763,0.477 2.345,-0.236c0.583,-0.712 0.477,-1.763 -0.235,-2.345c-104.668,-85.58 -110.195,-159.27 -110.341,-161.523c-0.074,-6.314 -8.73,-756.03 -0.033,-799.829c2.588,-13.033 13.989,-31.341 28.599,-50.633c34.457,-45.498 86.903,-96.223 86.903,-96.223c0.661,-0.64 0.679,-1.696 0.039,-2.357c-0.639,-0.661 -1.695,-0.678 -2.357,-0.039Z"/><path d="M565.812,1329.05l260.984,-0l-0,1151.72l-251.984,-0l-9,-1151.72Zm3.36,3.333l254.29,0c0,65.639 0,1079.41 0,1145.05c0,-0 -245.343,-0 -245.343,-0c0,-0 -8.947,-1145.05 -8.947,-1145.05l-0,0Z"/><path d="M649.344,1441.43c0,0 -44.369,60.483 -51.572,89.591c-7.23,29.217 -0.023,69.671 -0.023,69.671c0.05,0.282 0.172,0.546 0.354,0.767c0,-0 45.898,55.717 71.802,102.1c10.909,19.534 18.349,37.335 16.946,48.467c-0.115,0.913 0.532,1.747 1.445,1.862c0.913,0.115 1.747,-0.532 1.862,-1.445c1.46,-11.578 -5.996,-30.191 -17.343,-50.509c-24.849,-44.495 -68.003,-97.542 -71.861,-102.256c-0.733,-4.339 -6.603,-40.957 0.054,-67.857c7.112,-28.744 51.023,-88.417 51.023,-88.417c0.544,-0.741 0.385,-1.785 -0.357,-2.33c-0.741,-0.545 -1.785,-0.385 -2.33,0.356Z"/><path d="M687.079,2066.02c-0,-0 -49.98,82.589 -79.021,114.557c-0.188,0.206 -0.321,0.457 -0.386,0.728c-0,-0 -9.172,37.858 1.943,72.11c3.328,10.255 12.834,25.465 24.76,42.014c27.525,38.194 67.932,83.69 73.274,91.475c0.521,0.759 1.559,0.952 2.318,0.432c0.758,-0.521 0.951,-1.559 0.431,-2.318c-5.346,-7.79 -45.776,-53.319 -73.319,-91.538c-11.674,-16.2 -21.036,-31.056 -24.294,-41.094c-10.167,-31.332 -2.903,-65.759 -1.969,-69.884c29.218,-32.35 79.114,-114.756 79.114,-114.756c0.477,-0.787 0.225,-1.813 -0.562,-2.289c-0.787,-0.476 -1.813,-0.224 -2.289,0.563Z"/><path d="M686.738,1629.26c-0,0 -39.345,48.052 -66.067,88.96c-11.558,17.693 -20.742,34.08 -23.492,44.741c-9.083,35.222 -0.051,260.374 -0.051,260.374c0.011,0.276 0.091,0.545 0.231,0.782c0,0 32.096,54.179 59.715,90.052c12.055,15.657 23.359,27.803 30.808,30.8c0.854,0.344 1.825,-0.071 2.169,-0.924c0.343,-0.853 -0.071,-1.825 -0.924,-2.168c-7.153,-2.878 -17.837,-14.709 -29.412,-29.742c-26.197,-34.025 -56.432,-84.583 -59.271,-89.352c-0.433,-10.778 -8.858,-224.784 -0.037,-258.99c2.691,-10.433 11.744,-26.435 23.055,-43.75c26.635,-40.776 65.855,-88.671 65.855,-88.671c0.583,-0.712 0.478,-1.763 -0.234,-2.345c-0.711,-0.583 -1.762,-0.478 -2.345,0.233Z"/><path d="M687.079,2066.02c-0,-0 -49.98,82.589 -79.021,114.557c-0.188,0.206 -0.321,0.457 -0.386,0.728c-0,-0 -9.172,37.858 1.943,72.11c0.284,0.875 1.225,1.355 2.1,1.071c0.875,-0.284 1.354,-1.225 1.07,-2.1c-10.167,-31.332 -2.903,-65.759 -1.969,-69.884c29.218,-32.35 79.114,-114.756 79.114,-114.756c0.477,-0.787 0.225,-1.813 -0.562,-2.289c-0.787,-0.476 -1.813,-0.224 -2.289,0.563Z"/><path d="M744.194,1443.39c-0,-0 43.91,59.673 51.023,88.417c6.655,26.896 0.788,63.508 0.051,67.857c-3.878,4.741 -47.016,57.772 -71.859,102.255c-11.347,20.319 -18.802,38.932 -17.343,50.51c0.115,0.913 0.95,1.56 1.862,1.445c0.913,-0.115 1.56,-0.949 1.445,-1.862c-1.403,-11.132 6.037,-28.933 16.946,-48.467c25.904,-46.383 71.802,-102.101 71.802,-102.101c0.182,-0.22 0.304,-0.484 0.354,-0.766c0,-0 7.207,-40.454 -0.023,-69.671c-7.202,-29.108 -51.572,-89.591 -51.572,-89.591c-0.545,-0.741 -1.589,-0.901 -2.33,-0.356c-0.741,0.545 -0.901,1.589 -0.356,2.33Z"/><path d="M706.294,2067.73c0,-0 49.899,82.41 79.116,114.753c0.93,4.115 8.198,38.549 -1.971,69.887c-3.258,10.038 -12.619,24.894 -24.294,41.094c-27.543,38.219 -67.972,83.748 -73.318,91.538c-0.521,0.759 -0.328,1.797 0.431,2.317c0.758,0.521 1.796,0.328 2.317,-0.431c5.343,-7.785 45.749,-53.281 73.274,-91.475c11.927,-16.549 21.433,-31.759 24.76,-42.014c11.116,-34.253 1.944,-72.11 1.944,-72.11c-0.066,-0.271 -0.199,-0.522 -0.386,-0.728c-29.042,-31.968 -79.021,-114.557 -79.021,-114.557c-0.477,-0.787 -1.502,-1.039 -2.289,-0.563c-0.787,0.476 -1.039,1.502 -0.563,2.289Z"/><path d="M706.908,1631.36c-0,-0 39.219,47.895 65.855,88.671c11.31,17.315 20.364,33.317 23.054,43.75c8.822,34.206 0.396,248.208 -0.034,258.986c-2.828,4.752 -33.071,55.324 -59.274,89.356c-11.574,15.033 -22.259,26.864 -29.411,29.742c-0.854,0.343 -1.268,1.315 -0.924,2.168c0.343,0.853 1.314,1.267 2.168,0.924c7.449,-2.997 18.754,-15.143 30.808,-30.8c27.62,-35.873 59.715,-90.052 59.715,-90.052c0.141,-0.237 0.22,-0.506 0.231,-0.782c0,-0 9.032,-225.153 -0.051,-260.374c-2.749,-10.661 -11.934,-27.048 -23.491,-44.741c-26.723,-40.908 -66.067,-88.96 -66.067,-88.96c-0.583,-0.712 -1.634,-0.816 -2.346,-0.233c-0.712,0.582 -0.816,1.633 -0.233,2.345Z"/><path d="M1092.93,1352.99c-0,-0 53.722,51.655 88.945,97.713c14.934,19.527 26.568,38.002 29.156,51.036c8.734,43.984 -0.032,799.843 -0.032,799.843c-0,0.032 0,0.064 0.002,0.095c-0,0 3.071,71.597 -103.134,158.433c-0.712,0.583 -0.817,1.633 -0.235,2.346c0.582,0.712 1.633,0.817 2.345,0.235c107.172,-87.627 104.394,-160.226 104.354,-161.156l0.002,0.043c0.074,-6.517 8.671,-756.658 -0.033,-800.488c-2.654,-13.367 -14.462,-32.385 -29.777,-52.412c-35.359,-46.234 -89.283,-98.091 -89.283,-98.091c-0.663,-0.637 -1.719,-0.617 -2.357,0.046c-0.637,0.663 -0.616,1.719 0.047,2.357Z"/><path d="M1092.93,1352.99c-0,-0 53.722,51.655 88.945,97.713c14.934,19.527 26.568,38.002 29.156,51.036c8.734,43.984 -0.032,799.843 -0.032,799.843c-0.011,0.92 0.728,1.675 1.647,1.686c0.92,0.011 1.676,-0.727 1.686,-1.647c0,-0 8.71,-756.51 -0.032,-800.531c-2.654,-13.367 -14.462,-32.385 -29.777,-52.412c-35.359,-46.234 -89.283,-98.091 -89.283,-98.091c-0.663,-0.637 -1.719,-0.617 -2.357,0.046c-0.637,0.663 -0.616,1.719 0.047,2.357Z"/><path d="M1352.63,1347.87c-0,0 -52.657,53.199 -87.254,100.238c-14.979,20.366 -26.55,39.62 -29.203,52.98c-8.741,44.021 -0.031,800.531 -0.031,800.531c-0,0.024 0.001,0.047 0.002,0.071c-0,0 4.087,77.711 111.842,165.814c0.712,0.583 1.763,0.477 2.345,-0.235c0.582,-0.712 0.477,-1.763 -0.235,-2.345c-104.68,-85.59 -110.467,-161.059 -110.62,-163.361c-0.076,-6.464 -8.729,-756.031 -0.033,-799.826c2.59,-13.041 13.997,-31.774 28.618,-51.654c34.471,-46.866 86.938,-99.868 86.938,-99.868c0.647,-0.654 0.642,-1.71 -0.012,-2.357c-0.654,-0.647 -1.71,-0.642 -2.357,0.012Z"/><path d="M1093.18,1329.05l260.983,-0l0,1151.72l-251.983,-0l-9,-1151.72Zm3.36,3.333l254.29,0c0,0 0,20.586 0,20.586c0,0 0,1124.47 0,1124.47c0,-0 -245.343,-0 -245.343,-0c-0,-0 -8.947,-1145.05 -8.947,-1145.05l-0,0Z"/><path d="M1176.71,1441.43c-0,0 -44.37,60.483 -51.572,89.591c-7.23,29.217 -0.023,69.671 -0.023,69.671c0.05,0.282 0.172,0.546 0.354,0.767c-0,-0 45.898,55.717 71.802,102.1c10.909,19.534 18.349,37.335 16.946,48.467c-0.115,0.913 0.532,1.747 1.445,1.862c0.912,0.115 1.747,-0.532 1.862,-1.445c1.459,-11.578 -5.996,-30.191 -17.343,-50.509c-24.849,-44.495 -68.003,-97.542 -71.861,-102.256c-0.734,-4.339 -6.603,-40.957 0.053,-67.857c7.113,-28.744 51.023,-88.417 51.023,-88.417c0.545,-0.741 0.385,-1.785 -0.356,-2.33c-0.741,-0.545 -1.785,-0.385 -2.33,0.356Z"/><path d="M1214.45,2066.02c0,-0 -49.979,82.589 -79.021,114.557c-0.187,0.206 -0.32,0.457 -0.386,0.728c0,-0 -9.172,37.858 1.944,72.11c3.327,10.255 12.833,25.465 24.76,42.014c27.525,38.194 67.931,83.69 73.274,91.475c0.521,0.759 1.559,0.952 2.317,0.432c0.759,-0.521 0.952,-1.559 0.431,-2.318c-5.346,-7.79 -45.775,-53.319 -73.318,-91.538c-11.675,-16.2 -21.036,-31.056 -24.294,-41.094c-10.167,-31.332 -2.904,-65.759 -1.97,-69.884c29.219,-32.35 79.115,-114.756 79.115,-114.756c0.476,-0.787 0.224,-1.813 -0.563,-2.289c-0.787,-0.476 -1.812,-0.224 -2.289,0.563Z"/><path d="M1214.11,1629.26c0,0 -39.344,48.052 -66.067,88.96c-11.557,17.693 -20.742,34.08 -23.491,44.741c-9.083,35.222 -0.051,260.374 -0.051,260.374c0.011,0.276 0.09,0.545 0.231,0.782c-0,0 32.095,54.179 59.715,90.052c12.054,15.657 23.359,27.803 30.808,30.8c0.854,0.344 1.825,-0.071 2.168,-0.924c0.344,-0.853 -0.07,-1.825 -0.924,-2.168c-7.152,-2.878 -17.837,-14.709 -29.411,-29.742c-26.197,-34.025 -56.433,-84.583 -59.272,-89.352c-0.432,-10.778 -8.858,-224.784 -0.036,-258.99c2.69,-10.433 11.744,-26.435 23.054,-43.75c26.636,-40.776 65.856,-88.671 65.856,-88.671c0.582,-0.712 0.478,-1.763 -0.234,-2.345c-0.712,-0.583 -1.763,-0.478 -2.346,0.233Z"/><path d="M1214.45,2066.02c0,-0 -49.979,82.589 -79.021,114.557c-0.187,0.206 -0.32,0.457 -0.386,0.728c0,-0 -9.172,37.858 1.944,72.11c0.283,0.875 1.224,1.355 2.099,1.071c0.875,-0.284 1.355,-1.225 1.071,-2.1c-10.167,-31.332 -2.904,-65.759 -1.97,-69.884c29.219,-32.35 79.115,-114.756 79.115,-114.756c0.476,-0.787 0.224,-1.813 -0.563,-2.289c-0.787,-0.476 -1.812,-0.224 -2.289,0.563Z"/><path d="M1271.56,1443.39c0,-0 43.911,59.673 51.023,88.417c6.656,26.896 0.789,63.508 0.052,67.857c-3.878,4.741 -47.017,57.772 -71.859,102.255c-11.347,20.319 -18.803,38.932 -17.343,50.51c0.115,0.913 0.949,1.56 1.862,1.445c0.913,-0.115 1.56,-0.949 1.445,-1.862c-1.403,-11.132 6.037,-28.933 16.946,-48.467c25.904,-46.383 71.802,-102.101 71.802,-102.101c0.182,-0.22 0.304,-0.484 0.354,-0.766c-0,-0 7.207,-40.454 -0.023,-69.671c-7.203,-29.108 -51.572,-89.591 -51.572,-89.591c-0.545,-0.741 -1.589,-0.901 -2.33,-0.356c-0.742,0.545 -0.901,1.589 -0.357,2.33Z"/><path d="M1233.66,2067.73c-0,-0 49.898,82.41 79.115,114.753c0.931,4.115 8.199,38.549 -1.97,69.887c-3.258,10.038 -12.62,24.894 -24.294,41.094c-27.543,38.219 -67.973,83.748 -73.319,91.538c-0.52,0.759 -0.327,1.797 0.431,2.317c0.759,0.521 1.797,0.328 2.318,-0.431c5.342,-7.785 45.749,-53.281 73.274,-91.475c11.926,-16.549 21.432,-31.759 24.76,-42.014c11.115,-34.253 1.943,-72.11 1.943,-72.11c-0.065,-0.271 -0.198,-0.522 -0.386,-0.728c-29.041,-31.968 -79.021,-114.557 -79.021,-114.557c-0.476,-0.787 -1.502,-1.039 -2.289,-0.563c-0.786,0.476 -1.039,1.502 -0.562,2.289Z"/><path d="M1234.28,1631.36c0,-0 39.22,47.895 65.855,88.671c11.311,17.315 20.364,33.317 23.055,43.75c8.821,34.206 0.396,248.208 -0.035,258.986c-2.828,4.752 -33.071,55.324 -59.273,89.356c-11.575,15.033 -22.259,26.864 -29.412,29.742c-0.853,0.343 -1.267,1.315 -0.924,2.168c0.344,0.853 1.315,1.267 2.169,0.924c7.449,-2.997 18.753,-15.143 30.808,-30.8c27.619,-35.873 59.715,-90.052 59.715,-90.052c0.14,-0.237 0.22,-0.506 0.231,-0.782c0,-0 9.032,-225.153 -0.051,-260.374c-2.75,-10.661 -11.934,-27.048 -23.492,-44.741c-26.722,-40.908 -66.067,-88.96 -66.067,-88.96c-0.583,-0.712 -1.633,-0.816 -2.345,-0.233c-0.712,0.582 -0.817,1.633 -0.234,2.345Z"/></g><g><path d="M1707.46,1256.78l0.218,1217.25c0.001,2.073 1.685,3.757 3.758,3.756c2.074,-0 3.757,-1.684 3.757,-3.758l-0.218,-1217.25c-0.001,-2.073 -1.684,-3.757 -3.758,-3.756c-2.074,0 -3.757,1.684 -3.757,3.758Z"/><path d="M4.861,1312.19l1704.71,-0c2.066,-0 3.743,-1.678 3.743,-3.744c0,-2.066 -1.677,-3.743 -3.743,-3.743l-1704.71,-0c-2.065,-0 -3.743,1.677 -3.743,3.743c0,2.066 1.678,3.744 3.743,3.744Z"/></g></svg>