<?xml version="1.0" encoding="UTF-8" standalone="no"?><!DOCTYPE svg PUBLIC "-//W3C//DTD SVG 1.1//EN" "http://www.w3.org/Graphics/SVG/1.1/DTD/svg11.dtd"><svg width="100%" height="100%" viewBox="0 0 97 97" version="1.1" xmlns="http://www.w3.org/2000/svg" xmlns:xlink="http://www.w3.org/1999/xlink" xml:space="preserve" xmlns:serif="http://www.serif.com/" style="fill-rule:evenodd;clip-rule:evenodd;stroke-linejoin:round;stroke-miterlimit:2;"><circle cx="48.13" cy="48.13" r="48.13" style="fill:#ddd;"/><g id="Assyakirin"><path d="M54.256,14.646c-0.067,-0.011 -0.134,-0.022 -0.202,-0.033c0,0 0.07,0.01 0.202,0.033c25.724,4.341 31.283,28.605 31.283,28.605c3.87,37.447 -26.276,43.609 -33.12,44.523l0,0.01c0,0 -4.974,0.697 -7.419,-0.009c-6.828,-0.91 -37,-7.062 -33.129,-44.524c0,0 3.207,-13.997 16.02,-22.631l-0.005,-3.846l7.037,0.146c2.483,-0.984 5.219,-1.765 8.231,-2.274c0.132,-0.023 0.202,-0.033 0.202,-0.033c-0.067,0.011 -0.135,0.022 -0.202,0.033c-0.765,0.136 -3.627,0.713 -7.147,2.297l0.341,0.007l0,14.645l15.265,0l0,16.487l-2.093,0l0,-10.874c0,0 -2.443,-3.596 -5.496,-0.351l0,11.302l-2.174,-0.056l-0.223,-11.001c0,0 -2.68,-3.985 -5.359,0.337l0,10.496l-2.792,0l0.168,-27.558l-2.736,0l0,29.915l39.191,0.28l0,14.368l-2.959,2.975l-36.399,0l-2.379,-1.531c7.016,6.17 15.6,8.52 17.993,8.52l0,0.047c1.258,0.035 3.214,0.501 5.803,-0.149c6.398,-0.987 28.104,-9.307 26.702,-32.236c-1.417,-23.187 -22.322,-27.515 -24.604,-27.92Zm-26.363,7.517c-4.675,4.19 -8.745,10.617 -9.343,20.403c-0.661,10.809 3.814,18.371 9.399,23.45l-0.056,-43.853Zm42.147,25.987l-2.394,0l0,-10.057c-5.145,-3.628 -9.576,0 -9.576,0l0,10.021l-2.393,0l0.035,-24.174l14.328,0l0,24.21Zm-11.934,-13.47l9.683,0l0,-6.825c0,0 -5.038,-5.208 -9.719,0l0.036,6.825Zm-9.72,-28.517l1.744,4.736l4.798,0.526l-3.577,3.245l1.919,4.735l-4.623,-3.244l-3.663,2.894l0.697,-4.648l-4.361,-3.157l5.321,0.175l1.745,-5.262Zm-16.574,0.088c0,0 10.816,2.368 5.844,9.383l-10.555,-0.087c0,0 -6.891,-5.262 4.711,-9.296Z" style="fill:#00c55b;"/><path d="M43.335,65.063l-1.954,0l0,-1.347l0.558,-0.113l0,-2.469l9.714,0l0,-2.133l-6.978,0l0,-2.133c0,0 4.466,-4.265 6.699,-3.872l0.503,1.235c0,0 -3.685,1.066 -5.081,3.367l6.644,-0.056l0,4.883l-10.105,0l0,2.638Zm22.443,-2.582l-11.11,0l0,-7.745l1.731,0l0,6.23l2.233,0l0,-1.516l1.005,0l0,1.684l1.172,0l0,-1.572l0.726,0l0,1.516l0.614,0l0,-2.638l1.06,0l0,2.638l0.838,0l0,-6.511l1.731,0l0,7.914Zm2.065,-0.225l-1.396,0l-0.055,-7.745l1.451,0l0,7.745Zm-28.974,0l-8.821,0l0,-8.194l1.619,0l0,6.791l5.248,0l0,-6.566l1.34,0l0,2.974l1.842,0l0.056,-2.918l1.786,-0.056l0,4.546l-3.07,0l0,0.28l1.786,0l0,1.516l-1.786,0l0,1.627Zm21.661,-4.209l-1.228,0l0,-0.786l1.228,0l0,0.786Zm2.065,-0.112l-1.228,0l0,-0.786l1.228,0l0,0.786Zm-28.527,-1.01l-1.229,0l0,-0.786l1.229,0l0,0.786Zm27.467,-0.113l-1.229,0l0,-0.785l1.229,0l0,0.785Z" style="fill:#efefef;"/></g></svg>