<?xml version="1.0" encoding="UTF-8" standalone="no"?><!DOCTYPE svg PUBLIC "-//W3C//DTD SVG 1.1//EN" "http://www.w3.org/Graphics/SVG/1.1/DTD/svg11.dtd"><svg width="100%" height="100%" viewBox="0 0 97 97" version="1.1" xmlns="http://www.w3.org/2000/svg" xmlns:xlink="http://www.w3.org/1999/xlink" xml:space="preserve" xmlns:serif="http://www.serif.com/" style="fill-rule:evenodd;clip-rule:evenodd;stroke-linejoin:round;stroke-miterlimit:2;"><circle cx="48.13" cy="48.13" r="48.13" style="fill:#ddd;"/><g id="Darussalam"><path d="M47.818,3.895c-0.017,-0.323 13.685,11.622 14.467,16.694c0.904,5.862 0.411,6.986 0.411,6.986l15.857,0.08l-0.303,55.162l-29.968,0l0.002,0.226l-30.276,0l-0.3,-55.162l15.726,-0.08c0,0 -0.489,-1.124 0.407,-6.987c0.778,-5.088 11.549,-14.519 13.977,-16.919Z" style="fill:#00a44f;fill-opacity:0.94;"/><path d="M40.913,79.317l-10.586,0l0,-3.444l8.201,0l0.283,-41.007l1.956,0l0,35.897l1.792,0l0,-6.264l1.793,0l0,6.337l1.515,0l0,-6.424l1.982,0l0,6.373l1.773,0l0,-6.219l1.721,0l0,5.962l1.982,0l0,-27.239l2.972,0l0,30.888l-15.384,0l0,5.14Zm19.126,-0.476l-11.147,0l0,-2.762l8.539,0l0.196,-29.809l2.412,0l0,32.571Zm-34.591,-0.048l-2.933,0l0,-11.323l9.859,0l0,7.308l-6.926,0l0,4.015Zm45.151,-4.063l-10.234,0l0,-2.763l7.626,0l0,-1.991l-2.346,0l-0.066,-2.506l5.02,0l0,7.26Zm-34.314,-0.675l-2.363,0l-0.081,-42.642l2.444,0l0,42.642Zm-6.437,-1.365l0,-2.891l-4.644,0l0.081,2.891l4.563,0Zm33.841,-2.265l-1.956,0l0,-22.292l1.956,0l0,22.292Z" style="fill:#ffe900;"/></g></svg>